<?xml version="1.0" standalone="no"?>
<!DOCTYPE svg PUBLIC "-//W3C//DTD SVG 20010904//EN"
 "http://www.w3.org/TR/2001/REC-SVG-20010904/DTD/svg10.dtd">
<svg version="1.0" xmlns="http://www.w3.org/2000/svg"
 width="1536.000000pt" height="1024.000000pt" viewBox="0 0 1536.000000 1024.000000"
 preserveAspectRatio="xMidYMid meet">

<g transform="translate(0.000000,1024.000000) scale(0.100000,-0.100000)"
fill="#000000" stroke="none">
<path d="M6444 6571 c-213 -34 -349 -159 -362 -331 -6 -94 16 -165 72 -227 60
-67 132 -103 316 -158 177 -54 223 -74 247 -111 29 -45 22 -92 -19 -129 -58
-54 -152 -67 -284 -40 -86 18 -149 43 -210 85 l-43 29 -49 -77 c-77 -120 -78
-123 -56 -139 11 -8 51 -30 90 -49 262 -126 621 -103 761 49 62 67 86 142 81
252 -3 77 -8 98 -31 137 -14 25 -41 58 -59 74 -47 39 -156 87 -283 124 -230
67 -291 122 -240 220 51 98 282 100 452 3 l41 -24 52 96 c28 52 48 99 45 105
-11 18 -122 69 -194 89 -80 22 -251 34 -327 22z"/>
<path d="M3070 6538 c-8 -18 -308 -771 -451 -1130 l-19 -48 140 0 c82 0 140 4
140 10 0 5 18 57 41 115 l40 105 257 0 257 0 45 -115 45 -114 137 -3 c76 -2
138 0 138 3 0 3 -86 217 -190 475 -105 258 -214 526 -243 597 l-51 127 -138 0
c-134 0 -139 -1 -148 -22z m236 -506 l82 -217 -165 -3 c-91 -1 -167 -1 -169 1
-2 2 33 103 79 224 45 122 84 219 87 216 3 -2 42 -102 86 -221z"/>
<path d="M4010 5960 l0 -600 135 0 135 0 0 600 0 600 -135 0 -135 0 0 -600z"/>
<path d="M4530 5961 l0 -601 130 0 130 0 0 185 0 185 109 0 109 0 122 -190
122 -190 149 0 c82 0 149 2 149 4 0 3 -65 97 -144 210 l-145 206 48 24 c150
76 230 244 203 421 -19 121 -64 194 -156 256 -114 76 -149 82 -508 87 l-318 4
0 -601z m605 355 c81 -35 115 -86 115 -173 0 -41 -6 -68 -21 -92 -49 -81 -108
-101 -301 -101 l-138 0 0 196 0 196 153 -4 c114 -3 162 -9 192 -22z"/>
<path d="M7200 5960 l0 -600 135 0 135 0 0 179 0 178 168 5 c144 5 178 9 247
31 186 61 280 178 292 362 15 220 -95 369 -312 425 -69 18 -111 20 -372 20
l-293 0 0 -600z m592 355 c87 -31 126 -100 116 -204 -6 -66 -39 -108 -106
-139 -48 -22 -73 -25 -193 -30 l-139 -5 0 203 0 203 138 -6 c92 -3 152 -10
184 -22z"/>
<path d="M8370 5960 l0 -600 135 0 135 0 0 245 0 245 270 0 270 0 0 -245 0
-245 130 0 130 0 0 600 0 600 -130 0 -130 0 0 -245 0 -245 -270 0 -270 0 0
245 0 245 -135 0 -135 0 0 -600z"/>
<path d="M9680 5962 c0 -329 2 -601 4 -603 2 -2 197 -3 433 -1 l428 2 0 110 0
110 -302 0 -303 0 0 135 0 135 260 0 260 0 0 110 0 110 -260 0 -260 0 0 130 0
130 300 0 300 0 0 115 0 115 -430 0 -430 0 0 -598z"/>
<path d="M10750 5961 l0 -601 135 0 135 0 0 185 0 185 108 -1 107 0 115 -180
c63 -99 120 -184 126 -190 7 -5 73 -8 159 -7 l146 3 -144 207 -145 206 58 36
c72 45 125 103 159 175 23 50 26 68 26 171 0 103 -3 121 -26 171 -36 75 -86
130 -156 167 -119 62 -138 65 -485 70 l-318 4 0 -601z m623 346 c74 -37 101
-88 95 -182 -5 -76 -24 -108 -89 -145 -41 -23 -55 -25 -201 -28 l-158 -4 0
197 0 197 148 -4 c137 -4 153 -6 205 -31z"/>
<path d="M11960 5958 l0 -603 430 0 430 0 0 113 0 112 -300 0 -300 0 0 135 0
135 260 0 260 0 0 110 0 110 -260 0 -260 0 0 130 0 130 295 0 295 0 0 115 0
115 -425 0 -425 0 0 -602z"/>
<path d="M4772 4869 c-167 -26 -310 -95 -417 -203 -130 -131 -185 -259 -193
-447 -6 -146 13 -236 73 -358 92 -182 255 -312 461 -367 95 -25 303 -25 394 0
327 90 530 350 530 681 0 285 -139 505 -396 626 -44 21 -110 45 -145 54 -84
19 -228 26 -307 14z m199 -259 c254 -48 410 -300 344 -555 -46 -174 -176 -290
-357 -316 -191 -28 -366 57 -450 218 -97 185 -69 394 71 534 104 103 246 146
392 119z"/>
<path d="M3240 4850 c-239 -62 -419 -231 -492 -464 -28 -88 -34 -241 -14 -346
31 -170 146 -345 288 -441 115 -78 285 -130 427 -129 75 1 193 23 263 50 72
27 191 105 243 159 l39 41 -39 41 c-22 22 -66 63 -98 91 l-58 50 -57 -54 c-93
-88 -201 -126 -328 -115 -238 22 -395 200 -395 447 0 137 31 219 115 308 161
171 454 174 621 8 l43 -43 96 84 c112 98 112 93 11 175 -78 63 -178 115 -271
138 -105 27 -289 27 -394 0z"/>
<path d="M10665 4854 c-98 -21 -257 -101 -327 -164 -75 -67 -149 -179 -183
-276 -36 -107 -46 -285 -20 -398 78 -351 418 -585 783 -539 109 14 198 43 282
93 67 40 183 147 174 161 -3 5 -46 45 -96 90 l-90 81 -47 -47 c-58 -59 -110
-90 -186 -109 -149 -39 -314 4 -421 112 -156 155 -160 458 -9 621 164 176 433
186 608 23 l52 -50 99 86 99 86 -69 65 c-75 72 -175 128 -279 156 -86 24 -282
29 -370 9z"/>
<path d="M5850 4175 l0 -675 145 0 145 0 0 440 0 440 352 -440 352 -440 128 0
128 0 0 675 0 675 -140 0 -140 0 -2 -444 -3 -445 -355 444 -355 445 -127 0
-128 0 0 -675z"/>
<path d="M7410 4175 l0 -675 140 0 140 0 -2 440 c-3 406 -2 438 13 422 15 -15
547 -686 643 -809 l41 -53 128 0 127 0 0 675 0 675 -135 0 -135 0 0 -445 c0
-245 -3 -445 -7 -444 -5 0 -143 171 -308 380 -165 210 -324 410 -353 445 l-52
64 -120 0 -120 0 0 -675z"/>
<path d="M8940 4175 l0 -675 495 0 495 0 0 130 0 130 -350 0 -350 0 0 150 0
150 300 0 300 0 0 120 0 120 -300 0 -301 0 3 148 3 147 338 0 337 0 0 128 0
127 -485 0 -485 0 0 -675z"/>
<path d="M11520 4725 l0 -125 225 0 225 0 0 -550 0 -550 140 0 140 0 0 550 0
550 220 0 220 0 0 125 0 125 -585 0 -585 0 0 -125z"/>
</g>
</svg>
