<?xml version="1.0" standalone="no"?>
<!DOCTYPE svg PUBLIC "-//W3C//DTD SVG 20010904//EN"
 "http://www.w3.org/TR/2001/REC-SVG-20010904/DTD/svg10.dtd">
<svg version="1.0" xmlns="http://www.w3.org/2000/svg"
 width="1024.000000pt" height="1024.000000pt" viewBox="0 0 1024.000000 1024.000000"
 preserveAspectRatio="xMidYMid meet">

<g transform="translate(0.000000,1024.000000) scale(0.100000,-0.100000)"
fill="#000000" stroke="none">
<path d="M4855 8574 c-189 -21 -250 -30 -371 -55 -604 -124 -1124 -408 -1578
-865 -427 -429 -724 -1017 -815 -1614 -110 -727 28 -1452 392 -2054 143 -238
269 -398 472 -601 328 -328 702 -573 1105 -726 127 -48 187 -55 232 -25 88 58
91 203 5 259 -13 8 -86 38 -163 67 -173 64 -341 151 -510 263 -183 121 -277
199 -454 376 -398 399 -656 873 -760 1401 -48 241 -64 589 -40 841 51 519 269
1040 604 1439 434 518 1024 856 1697 971 157 27 520 37 695 20 361 -36 701
-133 1014 -291 291 -148 489 -290 711 -510 160 -159 243 -258 354 -425 216
-323 352 -679 422 -1100 25 -154 25 -596 0 -770 -75 -506 -269 -960 -574
-1340 -203 -253 -462 -482 -737 -653 -144 -90 -383 -205 -526 -253 -146 -50
-163 -59 -184 -104 -50 -104 20 -225 130 -225 105 0 439 143 689 295 626 380
1085 930 1333 1596 127 339 179 611 189 974 12 486 -65 886 -256 1320 -298
677 -893 1260 -1576 1546 -412 172 -818 251 -1272 248 -109 -1 -211 -3 -228
-5z m469 -14 c472 -43 816 -134 1186 -316 201 -99 439 -251 432 -276 -1 -5 2
-7 8 -3 17 11 215 -149 204 -166 -3 -5 1 -7 8 -4 18 7 244 -223 349 -355 124
-155 141 -179 133 -192 -4 -6 -3 -8 3 -5 10 6 49 -48 112 -155 12 -21 19 -43
15 -49 -4 -7 -3 -9 4 -6 13 9 85 -120 76 -136 -4 -7 -4 -9 1 -5 18 16 156
-321 209 -508 112 -398 140 -857 79 -1293 -4 -29 -8 -39 -14 -30 -7 12 -9 12
-9 0 0 -8 -6 -11 -16 -7 -8 3 -12 2 -9 -4 3 -6 13 -10 21 -10 17 0 17 -18 0
-90 -7 -30 -15 -48 -18 -40 -3 10 -6 8 -10 -8 -4 -13 -2 -20 3 -16 6 3 8 -5 4
-20 -3 -14 -7 -38 -10 -53 -19 -94 -105 -343 -166 -482 -67 -150 -83 -180 -92
-174 -6 3 -7 1 -3 -5 9 -15 -18 -55 -29 -44 -5 4 -5 1 -1 -5 9 -17 -83 -175
-96 -166 -7 3 -8 1 -4 -6 9 -14 -52 -113 -64 -106 -5 3 -12 0 -16 -6 -5 -8 -3
-9 6 -4 8 5 11 3 8 -6 -3 -8 -11 -13 -17 -11 -7 1 -10 -2 -6 -8 8 -13 -36 -71
-48 -63 -6 3 -7 1 -4 -4 7 -12 -50 -89 -63 -86 -5 1 -14 -5 -22 -14 -9 -12 -9
-15 0 -9 6 4 12 3 12 -2 0 -15 -26 -33 -35 -24 -5 4 -5 2 -2 -4 6 -11 -89
-125 -101 -121 -4 1 -8 -2 -9 -6 -2 -17 -56 -66 -65 -61 -5 3 -7 0 -6 -8 2 -7
-3 -12 -9 -11 -7 2 -12 -2 -10 -8 3 -15 -166 -169 -192 -174 -11 -2 -33 -16
-48 -31 l-28 -27 38 27 c53 39 46 24 -9 -18 -26 -20 -51 -33 -57 -29 -5 3 -7
1 -4 -4 8 -13 -16 -35 -34 -31 -7 2 -13 -3 -14 -9 0 -17 -43 -46 -55 -38 -6 4
-9 1 -8 -7 2 -7 -5 -12 -14 -12 -10 1 -16 -2 -13 -6 7 -11 -74 -62 -87 -54 -6
4 -8 3 -5 -4 4 -6 -26 -30 -71 -56 -81 -47 -98 -54 -86 -34 4 7 3 8 -5 4 -6
-4 -9 -11 -6 -16 11 -17 -281 -153 -440 -205 -115 -38 -139 -40 -188 -16 -71
34 -94 115 -55 191 13 24 29 46 37 48 8 3 11 0 8 -5 -3 -5 0 -10 8 -10 8 0 12
4 10 8 -9 13 19 26 135 64 179 59 484 221 659 350 34 25 67 43 73 39 6 -4 8
-3 5 3 -4 6 10 24 31 39 60 46 222 192 287 258 123 126 302 350 369 464 17 29
36 61 41 70 6 9 21 37 34 61 18 34 25 41 33 30 8 -11 9 -10 4 4 -3 10 7 43 23
76 130 256 242 635 266 894 3 34 8 72 10 83 3 12 5 58 6 103 1 44 4 79 8 77 4
-3 6 7 5 22 -3 33 -11 173 -19 312 -4 58 -20 172 -36 253 -16 82 -26 154 -23
159 4 7 2 8 -4 4 -15 -9 -16 27 -1 57 9 20 9 20 -4 5 -12 -16 -17 -8 -42 75
-54 180 -204 508 -287 629 -11 16 -16 33 -12 39 4 8 3 9 -4 5 -11 -7 -48 51
-44 67 1 5 -2 6 -7 3 -5 -4 -19 10 -32 30 -12 20 -38 55 -58 79 -20 23 -52 62
-71 86 -175 219 -507 491 -783 639 -42 23 -75 46 -72 51 4 5 0 6 -8 4 -7 -3
-60 17 -118 44 -234 111 -537 196 -838 237 -142 18 -519 21 -673 4 -59 -6
-113 -8 -119 -4 -7 4 -9 3 -6 -3 4 -6 -38 -19 -103 -32 -214 -43 -476 -134
-682 -237 -111 -55 -270 -146 -300 -172 -9 -8 -22 -11 -28 -7 -6 3 -9 2 -8 -3
4 -14 -131 -114 -144 -106 -6 4 -8 2 -5 -4 4 -5 -36 -47 -90 -93 -107 -92
-188 -172 -296 -294 -39 -44 -75 -79 -80 -77 -5 1 -6 -2 -3 -7 8 -13 -34 -62
-46 -55 -6 4 -8 2 -5 -3 7 -11 -139 -238 -153 -238 -4 0 -12 -4 -17 -9 -5 -5
-2 -6 6 -1 17 10 21 18 -65 -150 -191 -374 -294 -807 -294 -1235 0 -121 20
-340 46 -500 15 -98 77 -337 95 -371 5 -11 7 -24 4 -29 -3 -5 -1 -11 3 -14 5
-3 21 -40 36 -83 15 -43 37 -95 48 -116 11 -21 17 -45 14 -53 -3 -8 -2 -13 3
-10 11 7 73 -113 65 -126 -4 -6 -3 -8 3 -5 5 3 17 -10 27 -29 9 -20 50 -87 91
-151 42 -63 73 -119 69 -124 -3 -5 -1 -8 4 -7 14 5 104 -111 96 -124 -4 -6 -3
-8 3 -5 6 4 28 -14 49 -40 22 -26 47 -56 57 -66 10 -10 15 -23 11 -29 -4 -6
-3 -8 3 -5 9 6 111 -89 106 -98 -2 -3 0 -5 3 -4 13 2 93 -85 87 -94 -4 -6 -1
-7 6 -2 8 4 27 -6 49 -27 21 -19 65 -56 99 -83 35 -26 60 -52 56 -58 -3 -6 -1
-7 5 -3 6 4 35 -10 64 -32 29 -21 70 -48 91 -61 20 -12 35 -27 32 -31 -3 -5 0
-12 6 -16 8 -4 9 -3 5 4 -12 19 3 14 49 -17 68 -46 271 -144 390 -188 61 -23
127 -48 147 -57 39 -17 73 -56 83 -99 8 -32 -2 -100 -14 -92 -5 2 -8 -3 -7
-12 2 -25 -61 -63 -105 -63 -43 0 -71 9 -64 20 3 5 -3 6 -13 4 -55 -15 -615
256 -596 288 4 7 2 8 -4 4 -6 -4 -21 -2 -33 5 -18 9 -19 13 -8 21 11 8 10 8
-4 4 -19 -6 -72 26 -61 37 3 3 0 8 -7 13 -8 5 -10 3 -4 -6 5 -8 3 -11 -6 -8
-8 3 -13 11 -11 17 1 7 -2 10 -8 6 -12 -8 -212 144 -204 156 3 5 -2 6 -10 3
-9 -3 -16 -1 -16 4 0 6 6 12 13 15 6 2 3 3 -9 1 -13 -2 -30 7 -45 23 -19 21
-20 25 -6 20 11 -4 16 -3 12 4 -4 6 -13 8 -21 5 -18 -7 -86 52 -77 67 3 5 2 7
-4 4 -13 -8 -96 77 -86 88 5 4 3 5 -4 1 -7 -4 -48 34 -103 95 -69 77 -88 104
-78 112 10 7 9 8 -3 4 -11 -4 -28 11 -54 46 -21 29 -51 69 -67 89 -30 39 -36
54 -16 42 7 -4 8 -3 4 5 -4 6 -11 9 -15 6 -12 -7 -63 74 -55 87 4 6 3 8 -3 5
-13 -8 -117 166 -178 298 -26 55 -51 107 -55 117 -22 42 -85 215 -125 346
-153 493 -165 1118 -31 1644 22 86 40 137 46 133 5 -3 6 3 3 13 -4 16 50 173
90 264 68 151 81 177 88 173 4 -3 7 3 6 13 -1 24 132 254 143 247 5 -3 12 0
16 6 4 8 3 9 -4 5 -17 -10 -15 0 4 30 14 20 19 22 33 12 14 -12 14 -11 3 4 -8
9 -11 22 -7 29 6 8 10 7 17 -2 7 -10 8 -8 3 7 -3 13 1 26 10 34 13 11 14 10
10 -3 -4 -8 -2 -18 3 -21 5 -3 8 6 6 20 -2 19 13 46 53 98 30 39 59 70 65 68
5 -1 7 2 4 7 -16 25 352 390 377 374 5 -3 7 -1 3 5 -3 5 13 25 36 43 24 19 45
36 48 39 11 13 158 120 164 120 4 0 4 -6 0 -12 -4 -8 -3 -10 2 -5 5 5 9 12 9
17 0 8 99 80 110 80 4 0 3 -5 -1 -12 -4 -7 -3 -8 5 -4 6 4 9 11 7 15 -7 10
178 111 320 175 124 57 363 141 493 176 306 81 700 117 995 90z"/>
<path d="M5416 8458 c3 -5 10 -6 15 -3 13 9 11 12 -6 12 -8 0 -12 -4 -9 -9z"/>
<path d="M5660 8300 c-9 -6 -10 -10 -3 -10 6 0 15 5 18 10 8 12 4 12 -15 0z"/>
<path d="M5996 8228 c3 -5 10 -6 15 -3 13 9 11 12 -6 12 -8 0 -12 -4 -9 -9z"/>
<path d="M6387 8066 c-4 -10 -1 -13 8 -9 8 3 12 9 9 14 -7 12 -11 11 -17 -5z"/>
<path d="M2756 7392 c-3 -5 1 -9 9 -9 8 0 12 4 9 9 -3 4 -7 8 -9 8 -2 0 -6 -4
-9 -8z"/>
<path d="M7780 7011 c0 -6 4 -13 10 -16 6 -3 7 1 4 9 -7 18 -14 21 -14 7z"/>
<path d="M7861 6134 c0 -11 3 -14 6 -6 3 7 2 16 -1 19 -3 4 -6 -2 -5 -13z"/>
<path d="M7891 5984 c0 -11 3 -14 6 -6 3 7 2 16 -1 19 -3 4 -6 -2 -5 -13z"/>
<path d="M7906 5912 c-2 -4 -1 -14 5 -22 7 -12 9 -10 9 8 0 23 -5 28 -14 14z"/>
<path d="M8103 5845 c0 -8 4 -12 9 -9 5 3 6 10 3 15 -9 13 -12 11 -12 -6z"/>
<path d="M8102 5517 c10 -8 16 -16 13 -19 -3 -2 1 -5 8 -5 8 0 14 6 14 14 0 7
-2 11 -5 8 -3 -2 -14 0 -26 6 -19 9 -19 9 -4 -4z"/>
<path d="M8130 5430 c8 -5 20 -10 25 -10 6 0 3 5 -5 10 -8 5 -19 10 -25 10 -5
0 -3 -5 5 -10z"/>
<path d="M7950 5280 c0 -5 5 -10 11 -10 5 0 7 5 4 10 -3 6 -8 10 -11 10 -2 0
-4 -4 -4 -10z"/>
<path d="M2090 5266 c0 -8 4 -17 9 -20 5 -4 7 3 4 14 -6 23 -13 26 -13 6z"/>
<path d="M8088 5273 c6 -2 10 -9 7 -14 -4 -5 1 -6 9 -3 20 8 11 24 -12 23 -11
0 -12 -2 -4 -6z"/>
<path d="M8125 5228 c4 -11 2 -18 -4 -18 -6 0 -11 -5 -11 -12 0 -8 6 -6 17 5
14 14 15 19 4 29 -10 11 -11 10 -6 -4z"/>
<path d="M7993 5095 c0 -8 4 -12 9 -9 5 3 6 10 3 15 -9 13 -12 11 -12 -6z"/>
<path d="M8080 5100 c0 -5 5 -10 11 -10 5 0 7 5 4 10 -3 6 -8 10 -11 10 -2 0
-4 -4 -4 -10z"/>
<path d="M2350 5079 c0 -5 -4 -7 -10 -4 -5 3 -10 1 -10 -4 0 -17 27 -13 34 4
3 8 1 15 -4 15 -6 0 -10 -5 -10 -11z"/>
<path d="M8027 5067 c-3 -8 1 -14 9 -14 7 0 11 4 8 8 -2 4 2 10 8 12 8 4 7 6
-3 6 -9 1 -19 -5 -22 -12z"/>
<path d="M2338 5043 c6 -2 18 -2 25 0 6 3 1 5 -13 5 -14 0 -19 -2 -12 -5z"/>
<path d="M7871 5034 c0 -11 3 -14 6 -6 3 7 2 16 -1 19 -3 4 -6 -2 -5 -13z"/>
<path d="M2235 5030 c-3 -5 -1 -10 4 -10 6 0 11 5 11 10 0 6 -2 10 -4 10 -3 0
-8 -4 -11 -10z"/>
<path d="M2165 4990 c-3 -5 -1 -10 4 -10 6 0 11 5 11 10 0 6 -2 10 -4 10 -3 0
-8 -4 -11 -10z"/>
<path d="M2276 4992 c-3 -5 1 -9 9 -9 8 0 12 4 9 9 -3 4 -7 8 -9 8 -2 0 -6 -4
-9 -8z"/>
<path d="M2314 4979 c-4 -7 -3 -9 4 -5 5 3 13 0 15 -6 4 -9 6 -10 6 -1 1 17
-16 25 -25 12z"/>
<path d="M2153 4953 c-3 -10 -8 -21 -10 -25 -2 -5 0 -8 5 -8 5 0 12 11 14 25
6 29 0 33 -9 8z"/>
<path d="M7917 4959 c7 -7 15 -10 18 -7 3 3 -2 9 -12 12 -14 6 -15 5 -6 -5z"/>
<path d="M8013 4925 c0 -8 4 -12 9 -9 5 3 6 10 3 15 -9 13 -12 11 -12 -6z"/>
<path d="M2150 4885 c0 -33 15 -33 16 0 1 14 -2 25 -7 25 -5 0 -9 -11 -9 -25z"/>
<path d="M2262 4901 c-11 -7 -11 -9 0 -14 9 -3 15 1 15 9 0 8 -1 14 -1 14 -1
0 -7 -4 -14 -9z"/>
<path d="M7993 4881 c0 -11 5 -18 9 -15 4 3 5 11 1 19 -7 21 -12 19 -10 -4z"/>
<path d="M2176 4833 c-6 -14 -5 -15 5 -6 7 7 10 15 7 18 -3 3 -9 -2 -12 -12z"/>
<path d="M7930 4780 c0 -5 5 -10 10 -10 6 0 10 5 10 10 0 6 -4 10 -10 10 -5 0
-10 -4 -10 -10z"/>
<path d="M2336 4708 c3 -5 10 -6 15 -3 13 9 11 12 -6 12 -8 0 -12 -4 -9 -9z"/>
<path d="M7925 4711 c-3 -5 -2 -12 3 -15 5 -3 9 1 9 9 0 17 -3 19 -12 6z"/>
<path d="M2231 4594 c0 -11 3 -14 6 -6 3 7 2 16 -1 19 -3 4 -6 -2 -5 -13z"/>
<path d="M7900 4600 c0 -5 5 -10 11 -10 5 0 7 5 4 10 -3 6 -8 10 -11 10 -2 0
-4 -4 -4 -10z"/>
<path d="M2343 4565 c0 -8 4 -12 9 -9 5 3 6 10 3 15 -9 13 -12 11 -12 -6z"/>
<path d="M2308 4543 c7 -3 16 -2 19 1 4 3 -2 6 -13 5 -11 0 -14 -3 -6 -6z"/>
<path d="M7844 4542 c4 -3 14 -7 22 -8 9 -1 13 0 10 4 -4 3 -14 7 -22 8 -9 1
-13 0 -10 -4z"/>
<path d="M2346 4516 c3 -8 -2 -16 -13 -19 -17 -4 -17 -5 0 -6 10 0 16 -5 13
-9 -3 -5 2 -9 10 -9 9 0 11 4 5 10 -5 5 -7 15 -5 22 3 7 1 16 -5 20 -6 3 -8 0
-5 -9z"/>
<path d="M7956 4497 c3 -10 9 -15 12 -12 3 3 0 11 -7 18 -10 9 -11 8 -5 -6z"/>
<path d="M7926 4473 c-6 -14 -5 -15 5 -6 7 7 10 15 7 18 -3 3 -9 -2 -12 -12z"/>
<path d="M2405 4470 c-3 -5 -1 -10 4 -10 6 0 11 5 11 10 0 6 -2 10 -4 10 -3 0
-8 -4 -11 -10z"/>
<path d="M2350 4451 c0 -6 4 -12 8 -15 5 -3 9 1 9 9 0 8 -4 15 -9 15 -4 0 -8
-4 -8 -9z"/>
<path d="M2317 4398 c-3 -11 0 -21 9 -25 8 -3 11 -9 8 -14 -3 -5 -2 -14 2 -21
4 -7 9 -22 10 -35 3 -30 30 -68 39 -54 3 6 2 11 -3 11 -5 0 -14 11 -20 24 -10
22 -9 25 9 23 11 -1 17 -7 15 -14 -3 -7 -1 -13 4 -13 6 0 10 9 10 21 0 15 -4
19 -16 15 -11 -4 -18 1 -21 14 -3 11 -10 20 -15 20 -5 0 -6 5 -3 10 4 6 11 8
16 5 5 -4 9 -1 9 4 0 6 -4 11 -9 11 -5 0 -8 7 -7 16 2 24 -31 26 -37 2z m29
-7 c0 -11 -5 -17 -13 -14 -10 4 -11 9 -2 19 15 18 15 18 15 -5z"/>
<path d="M2385 4390 c-3 -5 -1 -10 4 -10 6 0 11 5 11 10 0 6 -2 10 -4 10 -3 0
-8 -4 -11 -10z"/>
<path d="M2487 4339 c7 -7 15 -10 18 -7 3 3 -2 9 -12 12 -14 6 -15 5 -6 -5z"/>
<path d="M2466 4164 c-3 -8 -10 -13 -14 -10 -5 3 -9 0 -9 -7 0 -23 33 -14 35
10 2 27 -3 30 -12 7z"/>
<path d="M2510 4170 c0 -5 5 -10 11 -10 5 0 7 5 4 10 -3 6 -8 10 -11 10 -2 0
-4 -4 -4 -10z"/>
<path d="M2490 4110 c8 -5 20 -10 25 -10 6 0 3 5 -5 10 -8 5 -19 10 -25 10 -5
0 -3 -5 5 -10z"/>
<path d="M2486 4083 c-11 -11 -6 -24 6 -17 7 5 8 3 3 -6 -6 -10 -11 -9 -22 5
-7 11 -13 14 -13 8 0 -14 36 -54 43 -47 3 3 3 13 0 22 -3 11 3 9 16 -7 12 -13
21 -18 21 -12 0 7 6 9 13 5 6 -4 9 -4 5 0 -3 4 -9 6 -11 4 -3 -1 -16 9 -30 24
-14 15 -28 24 -31 21z"/>
<path d="M2530 4076 c0 -2 7 -7 16 -10 8 -3 12 -2 9 4 -6 10 -25 14 -25 6z"/>
<path d="M2590 4050 c-8 -5 -12 -12 -9 -15 4 -3 12 1 19 10 14 17 11 19 -10 5z"/>
<path d="M2660 4010 c0 -5 5 -10 11 -10 5 0 7 5 4 10 -3 6 -8 10 -11 10 -2 0
-4 -4 -4 -10z"/>
<path d="M2625 3980 c-3 -6 1 -7 9 -4 18 7 21 14 7 14 -6 0 -13 -4 -16 -10z"/>
<path d="M2589 3943 c-13 -17 -13 -17 6 -3 11 8 22 16 24 17 2 2 0 3 -6 3 -6
0 -17 -8 -24 -17z"/>
<path d="M2615 3900 c-3 -6 1 -7 9 -4 18 7 21 14 7 14 -6 0 -13 -4 -16 -10z"/>
<path d="M2652 3835 c3 -3 16 -8 28 -10 12 -2 20 -1 16 2 -4 4 -16 8 -28 10
-12 2 -19 1 -16 -2z"/>
<path d="M2996 3722 c-3 -5 1 -9 9 -9 8 0 12 4 9 9 -3 4 -7 8 -9 8 -2 0 -6 -4
-9 -8z"/>
<path d="M2791 3674 c0 -11 3 -14 6 -6 3 7 2 16 -1 19 -3 4 -6 -2 -5 -13z"/>
<path d="M2940 3510 c0 -5 5 -10 11 -10 5 0 7 5 4 10 -3 6 -8 10 -11 10 -2 0
-4 -4 -4 -10z"/>
<path d="M3148 3443 c7 -3 16 -2 19 1 4 3 -2 6 -13 5 -11 0 -14 -3 -6 -6z"/>
<path d="M3175 3279 c-4 -6 -5 -12 -2 -15 2 -3 7 2 10 11 7 17 1 20 -8 4z"/>
<path d="M3268 3183 c7 -3 16 -2 19 1 4 3 -2 6 -13 5 -11 0 -14 -3 -6 -6z"/>
<path d="M3590 3030 c-12 -8 -9 -9 12 -8 15 1 24 6 22 10 -7 10 -16 10 -34 -2z"/>
<path d="M3533 3007 c0 -8 6 -14 14 -14 9 0 10 4 2 14 -6 7 -12 13 -14 13 -1
0 -2 -6 -2 -13z"/>
<path d="M3804 2982 c3 -5 0 -13 -6 -15 -9 -4 -10 -6 -1 -6 17 -1 25 16 12 25
-7 4 -9 3 -5 -4z"/>
<path d="M3606 2953 c-6 -14 -5 -15 5 -6 7 7 10 15 7 18 -3 3 -9 -2 -12 -12z"/>
<path d="M3894 2918 c-4 -7 -4 -10 1 -6 4 4 14 0 22 -10 13 -15 13 -15 3 6
-12 25 -16 27 -26 10z"/>
<path d="M3985 2920 c3 -5 8 -10 11 -10 2 0 4 5 4 10 0 6 -5 10 -11 10 -5 0
-7 -4 -4 -10z"/>
<path d="M4047 2906 c-14 -11 -15 -15 -3 -19 8 -3 16 2 19 14 3 10 4 19 4 19
-1 0 -10 -7 -20 -14z"/>
<path d="M3957 2879 c7 -7 15 -10 18 -7 3 3 -2 9 -12 12 -14 6 -15 5 -6 -5z"/>
<path d="M4240 2875 c0 -8 2 -15 4 -15 2 0 6 7 10 15 3 8 1 15 -4 15 -6 0 -10
-7 -10 -15z"/>
<path d="M3816 2865 c8 -19 -24 -27 -34 -8 -6 10 -12 12 -16 5 -7 -13 28 -35
38 -24 4 3 11 1 15 -6 6 -10 11 -9 22 4 12 16 12 17 -1 9 -13 -8 -13 -7 -1 8
7 9 12 17 10 18 -32 6 -37 6 -33 -6z"/>
<path d="M3992 2867 c-8 -10 -6 -13 7 -13 11 0 17 6 14 13 -3 7 -6 13 -8 13
-1 0 -7 -6 -13 -13z"/>
<path d="M3870 2863 c5 -2 8 -8 6 -12 -3 -4 0 -13 5 -21 8 -12 9 -9 7 9 -2 14
-9 26 -16 27 -7 1 -8 0 -2 -3z"/>
<path d="M3908 2863 c7 -3 16 -2 19 1 4 3 -2 6 -13 5 -11 0 -14 -3 -6 -6z"/>
<path d="M3905 2840 c-3 -5 -1 -10 4 -10 6 0 11 5 11 10 0 6 -2 10 -4 10 -3 0
-8 -4 -11 -10z"/>
<path d="M3944 2833 c4 -8 2 -13 -6 -13 -8 0 -6 -5 5 -11 26 -15 34 -2 12 19
-10 9 -15 11 -11 5z"/>
<path d="M4024 2823 c4 -6 -4 -19 -16 -27 -12 -9 -17 -16 -11 -16 7 0 15 5 18
11 4 6 13 8 20 5 13 -5 35 12 35 26 0 4 -4 8 -10 8 -5 0 -9 -3 -9 -7 4 -22 -3
-25 -17 -7 -8 10 -13 14 -10 7z"/>
<path d="M3856 2812 c-3 -5 1 -9 9 -9 8 0 12 4 9 9 -3 4 -7 8 -9 8 -2 0 -6 -4
-9 -8z"/>
<path d="M4093 2799 c5 -20 -15 -43 -28 -31 -5 4 -5 1 -1 -5 4 -7 14 -13 23
-13 9 0 13 3 10 7 -4 3 -2 12 4 20 6 7 8 13 4 13 -4 0 -2 6 4 13 8 10 7 14 -5
14 -10 0 -14 -7 -11 -18z"/>
<path d="M4235 2790 c-3 -6 1 -7 9 -4 18 7 21 14 7 14 -6 0 -13 -4 -16 -10z"/>
<path d="M6000 2791 c0 -6 4 -13 10 -16 6 -3 7 1 4 9 -7 18 -14 21 -14 7z"/>
<path d="M3937 2767 c-3 -8 -1 -20 5 -28 8 -11 9 -11 5 3 -3 9 -1 18 6 21 8 2
8 5 0 10 -6 4 -13 1 -16 -6z"/>
<path d="M4331 2764 c0 -11 3 -14 6 -6 3 7 2 16 -1 19 -3 4 -6 -2 -5 -13z"/>
<path d="M5961 2764 c0 -11 3 -14 6 -6 3 7 2 16 -1 19 -3 4 -6 -2 -5 -13z"/>
<path d="M4017 2756 c-4 -10 -1 -13 8 -9 8 3 12 9 9 14 -7 12 -11 11 -17 -5z"/>
<path d="M4225 2761 c-3 -5 -18 -8 -33 -6 -15 2 -21 2 -14 -1 6 -3 10 -10 6
-15 -3 -5 0 -9 5 -9 6 0 11 5 11 11 0 5 4 8 9 5 5 -3 14 1 21 9 7 8 10 15 7
15 -3 0 -8 -4 -12 -9z"/>
<path d="M6197 2755 c-4 -8 -2 -17 3 -20 6 -4 10 3 10 14 0 25 -6 27 -13 6z"/>
<path d="M4103 2740 c-7 -10 -9 -21 -4 -24 5 -3 11 4 14 15 3 12 10 18 16 14
6 -3 11 -1 11 4 0 18 -24 12 -37 -9z"/>
<path d="M5950 2731 c0 -5 5 -13 10 -16 6 -3 10 -2 10 4 0 5 -4 13 -10 16 -5
3 -10 2 -10 -4z"/>
<path d="M4120 2723 c0 -5 9 -14 20 -21 11 -7 20 -8 20 -2 0 5 -9 14 -20 20
-11 6 -20 7 -20 3z"/>
<path d="M4285 2720 c-3 -5 -1 -10 4 -10 6 0 11 5 11 10 0 6 -2 10 -4 10 -3 0
-8 -4 -11 -10z"/>
<path d="M5990 2710 c-8 -5 -10 -10 -5 -10 6 0 17 5 25 10 8 5 11 10 5 10 -5
0 -17 -5 -25 -10z"/>
<path d="M6090 2709 c0 -5 5 -7 10 -4 6 3 10 8 10 11 0 2 -4 4 -10 4 -5 0 -10
-5 -10 -11z"/>
<path d="M4091 2693 c7 -10 15 -20 16 -22 2 -2 3 3 3 11 0 9 -7 19 -16 22 -15
6 -15 4 -3 -11z"/>
<path d="M4120 2680 c0 -5 5 -10 11 -10 5 0 7 5 4 10 -3 6 -8 10 -11 10 -2 0
-4 -4 -4 -10z"/>
<path d="M4178 2673 c6 -2 18 -2 25 0 6 3 1 5 -13 5 -14 0 -19 -2 -12 -5z"/>
<path d="M5931 2664 c0 -11 3 -14 6 -6 3 7 2 16 -1 19 -3 4 -6 -2 -5 -13z"/>
<path d="M3011 6184 c0 -11 3 -14 6 -6 3 7 2 16 -1 19 -3 4 -6 -2 -5 -13z"/>
<path d="M3012 5940 c0 -14 2 -19 5 -12 2 6 2 18 0 25 -3 6 -5 1 -5 -13z"/>
<path d="M3115 5656 c10 -14 19 -26 22 -26 7 0 -17 39 -28 46 -6 3 -3 -5 6
-20z"/>
<path d="M6909 5633 c-13 -16 -12 -17 4 -4 16 13 21 21 13 21 -2 0 -10 -8 -17
-17z"/>
<path d="M3155 5600 c10 -11 20 -20 23 -20 3 0 -3 9 -13 20 -10 11 -20 20 -23
20 -3 0 3 -9 13 -20z"/>
<path d="M6820 5538 c-36 -34 -51 -52 -35 -41 29 21 114 103 105 103 -3 -1
-34 -29 -70 -62z"/>
<path d="M3200 5545 c13 -14 26 -25 28 -25 3 0 -5 11 -18 25 -13 14 -26 25
-28 25 -3 0 5 -11 18 -25z"/>
<path d="M3275 5480 c10 -11 20 -20 23 -20 3 0 -3 9 -13 20 -10 11 -20 20 -23
20 -3 0 3 -9 13 -20z"/>
<path d="M3310 5456 c0 -3 9 -10 20 -16 11 -6 20 -8 20 -6 0 3 -9 10 -20 16
-11 6 -20 8 -20 6z"/>
<path d="M6695 5440 c-3 -6 1 -7 9 -4 18 7 21 14 7 14 -6 0 -13 -4 -16 -10z"/>
<path d="M6640 5410 c-9 -6 -10 -10 -3 -10 6 0 15 5 18 10 8 12 4 12 -15 0z"/>
<path d="M6525 5370 c-13 -6 -15 -9 -5 -9 8 0 22 4 30 9 18 12 2 12 -25 0z"/>
<path d="M6468 5353 c7 -3 16 -2 19 1 4 3 -2 6 -13 5 -11 0 -14 -3 -6 -6z"/>
<path d="M3603 5343 c9 -2 25 -2 35 0 9 3 1 5 -18 5 -19 0 -27 -2 -17 -5z"/>
<path d="M6403 5343 c9 -2 23 -2 30 0 6 3 -1 5 -18 5 -16 0 -22 -2 -12 -5z"/>
<path d="M4348 5333 c7 -3 16 -2 19 1 4 3 -2 6 -13 5 -11 0 -14 -3 -6 -6z"/>
<path d="M4868 5333 c7 -3 16 -2 19 1 4 3 -2 6 -13 5 -11 0 -14 -3 -6 -6z"/>
<path d="M5098 5333 c7 -3 16 -2 19 1 4 3 -2 6 -13 5 -11 0 -14 -3 -6 -6z"/>
<path d="M5228 5333 c12 -2 30 -2 40 0 9 3 -1 5 -23 4 -22 0 -30 -2 -17 -4z"/>
<path d="M5578 5333 c7 -3 16 -2 19 1 4 3 -2 6 -13 5 -11 0 -14 -3 -6 -6z"/>
<path d="M5628 5333 c12 -2 30 -2 40 0 9 3 -1 5 -23 4 -22 0 -30 -2 -17 -4z"/>
<path d="M5703 5333 c9 -2 25 -2 35 0 9 3 1 5 -18 5 -19 0 -27 -2 -17 -5z"/>
<path d="M5868 5333 c7 -3 16 -2 19 1 4 3 -2 6 -13 5 -11 0 -14 -3 -6 -6z"/>
<path d="M6018 5333 c12 -2 32 -2 45 0 12 2 2 4 -23 4 -25 0 -35 -2 -22 -4z"/>
<path d="M6178 5333 c12 -2 32 -2 45 0 12 2 2 4 -23 4 -25 0 -35 -2 -22 -4z"/>
<path d="M4855 5079 c-464 -44 -925 -235 -1305 -541 -138 -111 -167 -175 -117
-263 41 -72 119 -103 189 -76 13 5 65 45 115 89 297 255 707 429 1133 482 140
17 388 12 538 -10 242 -36 417 -92 647 -205 169 -82 290 -160 415 -265 134
-113 185 -128 266 -79 64 39 86 154 42 216 -73 102 -410 332 -646 440 -386
176 -845 253 -1277 212z m687 -43 c181 -32 446 -111 525 -155 10 -6 35 -17 56
-26 62 -24 286 -150 362 -203 39 -27 69 -54 67 -61 -1 -7 2 -9 8 -6 18 11 179
-121 210 -171 26 -41 25 -97 -2 -146 -27 -48 -62 -68 -120 -68 -47 0 -69 12
-134 71 -23 20 -75 62 -118 93 -45 34 -74 62 -70 68 4 7 2 8 -4 4 -16 -10 -54
12 -46 26 4 6 3 8 -4 4 -13 -8 -84 33 -77 44 3 4 -3 14 -13 21 -15 13 -16 12
-3 -3 7 -10 11 -18 9 -18 -19 0 -286 138 -280 145 4 4 2 5 -5 1 -7 -4 -52 7
-100 23 -245 82 -440 114 -703 113 -322 0 -584 -57 -890 -193 -62 -27 -117
-46 -123 -42 -5 3 -7 2 -4 -4 3 -5 -13 -20 -36 -33 -59 -31 -201 -123 -208
-134 -4 -5 -12 -5 -19 -1 -8 5 -11 4 -7 -2 6 -10 -115 -119 -175 -157 -41 -26
-109 -26 -145 0 -15 11 -38 41 -51 66 -44 88 -9 147 170 281 76 57 96 68 82
45 -4 -7 -3 -8 5 -4 6 4 9 11 6 15 -5 8 13 21 126 94 82 54 368 190 400 191
15 1 25 4 23 8 -6 9 194 72 291 92 44 9 100 21 125 26 57 12 250 30 355 33
154 4 372 -12 517 -37z"/>
<path d="M4575 4969 c-4 -6 -5 -12 -2 -15 2 -3 7 2 10 11 7 17 1 20 -8 4z"/>
<path d="M5133 4961 c-9 -14 -8 -18 3 -18 7 0 11 4 8 8 -2 4 1 9 8 11 7 3 8 7
2 11 -5 3 -15 -2 -21 -12z"/>
<path d="M4944 4955 c8 -8 20 -15 27 -15 7 0 4 6 -7 15 -25 19 -40 19 -20 0z"/>
<path d="M5536 4927 c3 -10 9 -15 12 -12 3 3 0 11 -7 18 -10 9 -11 8 -5 -6z"/>
<path d="M4885 4920 c-3 -6 1 -7 9 -4 18 7 21 14 7 14 -6 0 -13 -4 -16 -10z"/>
<path d="M4559 4903 c-13 -16 -12 -17 4 -4 16 13 21 21 13 21 -2 0 -10 -8 -17
-17z"/>
<path d="M4625 4911 c-3 -5 -2 -12 3 -15 5 -3 9 1 9 9 0 17 -3 19 -12 6z"/>
<path d="M5706 4895 c-11 -8 -15 -15 -9 -15 6 0 16 7 23 15 16 19 11 19 -14 0z"/>
<path d="M5815 4890 c-3 -5 -1 -10 4 -10 6 0 11 5 11 10 0 6 -2 10 -4 10 -3 0
-8 -4 -11 -10z"/>
<path d="M4575 4881 c-3 -5 2 -11 10 -15 8 -3 17 -1 20 3 3 5 -2 11 -10 15 -8
3 -17 1 -20 -3z"/>
<path d="M4925 4880 c3 -5 8 -10 11 -10 2 0 4 5 4 10 0 6 -5 10 -11 10 -5 0
-7 -4 -4 -10z"/>
<path d="M5228 4881 c-21 -5 -25 -9 -18 -21 7 -11 10 -11 10 -2 0 7 4 11 9 8
5 -3 14 1 21 9 7 8 11 14 9 14 -2 -1 -16 -4 -31 -8z"/>
<path d="M5150 4855 c0 -8 2 -15 4 -15 2 0 6 7 10 15 3 8 1 15 -4 15 -6 0 -10
-7 -10 -15z"/>
<path d="M5825 4860 c3 -5 8 -10 11 -10 2 0 4 5 4 10 0 6 -5 10 -11 10 -5 0
-7 -4 -4 -10z"/>
<path d="M5125 4851 c-3 -5 -2 -12 3 -15 5 -3 9 1 9 9 0 17 -3 19 -12 6z"/>
<path d="M5080 4830 c-9 -6 -10 -10 -3 -10 6 0 15 5 18 10 8 12 4 12 -15 0z"/>
<path d="M5770 4827 c0 -2 6 -10 14 -16 11 -9 16 -9 22 1 4 7 4 10 -1 6 -4 -4
-14 -3 -22 3 -7 6 -13 9 -13 6z"/>
<path d="M5228 4813 c6 -2 18 -2 25 0 6 3 1 5 -13 5 -14 0 -19 -2 -12 -5z"/>
<path d="M4213 4795 c0 -8 4 -12 9 -9 4 3 8 9 8 15 0 5 -4 9 -8 9 -5 0 -9 -7
-9 -15z"/>
<path d="M4563 4793 c0 -8 6 -9 19 -2 10 5 18 11 18 12 0 2 -8 3 -18 3 -10 0
-19 -6 -19 -13z"/>
<path d="M4350 4791 c-8 -6 -18 -7 -24 -4 -5 3 -6 1 -2 -5 5 -9 13 -9 27 -2
10 6 19 13 19 15 0 7 -3 6 -20 -4z"/>
<path d="M4818 4793 c7 -3 16 -2 19 1 4 3 -2 6 -13 5 -11 0 -14 -3 -6 -6z"/>
<path d="M5606 4778 c3 -5 10 -6 15 -3 13 9 11 12 -6 12 -8 0 -12 -4 -9 -9z"/>
<path d="M5668 4783 c7 -3 16 -2 19 1 4 3 -2 6 -13 5 -11 0 -14 -3 -6 -6z"/>
<path d="M4066 4765 c4 -8 8 -15 10 -15 2 0 4 7 4 15 0 8 -4 15 -10 15 -5 0
-7 -7 -4 -15z"/>
<path d="M5775 4770 c-3 -5 -1 -10 4 -10 6 0 11 5 11 10 0 6 -2 10 -4 10 -3 0
-8 -4 -11 -10z"/>
<path d="M3990 4755 c12 -15 4 -20 -22 -16 -4 0 -5 -6 -2 -13 5 -12 9 -12 24
2 14 12 17 19 8 29 -6 7 -13 13 -15 13 -3 0 0 -7 7 -15z"/>
<path d="M6016 4747 c3 -10 9 -15 12 -12 3 3 0 11 -7 18 -10 9 -11 8 -5 -6z"/>
<path d="M5657 4739 c7 -7 15 -10 18 -7 3 3 -2 9 -12 12 -14 6 -15 5 -6 -5z"/>
<path d="M4036 4723 c-6 -14 -5 -15 5 -6 7 7 10 15 7 18 -3 3 -9 -2 -12 -12z"/>
<path d="M6050 4731 c0 -5 5 -13 10 -16 6 -3 10 -2 10 4 0 5 -4 13 -10 16 -5
3 -10 2 -10 -4z"/>
<path d="M6190 4730 c0 -5 5 -10 11 -10 5 0 7 5 4 10 -3 6 -8 10 -11 10 -2 0
-4 -4 -4 -10z"/>
<path d="M4110 4720 c-9 -6 -10 -10 -3 -10 6 0 15 5 18 10 8 12 4 12 -15 0z"/>
<path d="M4221 4714 c0 -11 3 -14 6 -6 3 7 2 16 -1 19 -3 4 -6 -2 -5 -13z"/>
<path d="M3933 4705 c0 -11 4 -12 14 -4 7 6 13 13 13 15 0 2 -6 4 -13 4 -8 0
-14 -7 -14 -15z"/>
<path d="M4160 4711 c0 -6 4 -13 10 -16 6 -3 7 1 4 9 -7 18 -14 21 -14 7z"/>
<path d="M5880 4712 c0 -5 7 -9 15 -9 8 0 12 4 9 9 -3 4 -9 8 -15 8 -5 0 -9
-4 -9 -8z"/>
<path d="M6079 4703 c-12 -16 -12 -17 2 -5 9 7 25 10 35 6 16 -5 16 -4 4 5
-20 15 -25 14 -41 -6z"/>
<path d="M3903 4703 c4 -3 -1 -16 -10 -27 -15 -18 -15 -19 -1 -8 14 11 17 10
20 -4 3 -16 4 -16 17 0 12 15 12 17 0 14 -9 -2 -13 4 -11 15 2 9 -3 17 -9 17
-7 0 -9 -3 -6 -7z"/>
<path d="M6197 4693 c3 -7 6 -13 8 -13 2 0 5 6 8 13 3 8 -1 14 -8 14 -7 0 -11
-6 -8 -14z"/>
<path d="M6301 4694 c0 -11 3 -14 6 -6 3 7 2 16 -1 19 -3 4 -6 -2 -5 -13z"/>
<path d="M4068 4693 c7 -3 16 -2 19 1 4 3 -2 6 -13 5 -11 0 -14 -3 -6 -6z"/>
<path d="M6137 4665 c-12 -25 -21 -33 -37 -30 -11 2 -20 0 -20 -6 0 -10 28 -8
47 4 6 4 14 3 18 -3 3 -5 12 -10 18 -10 7 0 4 5 -5 11 -22 12 -23 23 -3 43 8
8 11 17 7 20 -5 3 -16 -10 -25 -29z"/>
<path d="M4043 4664 c0 -7 6 -10 14 -7 7 3 13 8 13 12 0 4 -6 8 -13 8 -8 0
-14 -6 -14 -13z"/>
<path d="M3818 4664 c-4 -5 0 -18 8 -29 15 -20 17 -12 5 19 -4 11 -10 15 -13
10z"/>
<path d="M4020 4670 c-8 -27 -8 -50 -1 -50 15 0 19 13 10 35 -4 11 -8 18 -9
15z"/>
<path d="M3735 4651 c-3 -5 0 -13 6 -17 7 -4 9 -3 5 4 -3 5 0 13 6 15 9 4 10
6 1 6 -6 1 -14 -3 -18 -8z"/>
<path d="M6290 4640 c0 -5 5 -10 10 -10 6 0 10 5 10 10 0 6 -4 10 -10 10 -5 0
-10 -4 -10 -10z"/>
<path d="M3886 4631 c-3 -4 6 -7 19 -7 14 0 22 2 19 5 -8 8 -34 10 -38 2z"/>
<path d="M4050 4630 c0 -5 0 -13 1 -16 0 -4 -10 -14 -24 -23 -13 -9 -22 -22
-20 -29 4 -9 10 -7 23 8 17 20 19 20 23 3 3 -10 4 -3 2 15 -3 29 3 37 28 33 4
0 7 4 7 9 0 6 -9 10 -20 10 -11 0 -20 -4 -20 -10z"/>
<path d="M6397 4629 c7 -7 15 -10 18 -7 3 3 -2 9 -12 12 -14 6 -15 5 -6 -5z"/>
<path d="M6438 4633 c7 -3 16 -2 19 1 4 3 -2 6 -13 5 -11 0 -14 -3 -6 -6z"/>
<path d="M3801 4622 c0 -7 -5 -11 -10 -8 -5 4 -8 -2 -7 -11 2 -10 -3 -24 -11
-31 -8 -8 -11 -17 -7 -21 4 -3 9 0 11 7 3 6 10 9 15 6 6 -4 8 -2 4 4 -3 5 -1
12 5 14 6 2 9 15 6 28 -2 14 -5 19 -6 12z"/>
<path d="M3850 4621 c0 -6 4 -13 10 -16 6 -3 7 1 4 9 -7 18 -14 21 -14 7z"/>
<path d="M6480 4621 c0 -8 -6 -11 -16 -7 -14 6 -15 4 -4 -9 12 -15 14 -15 23
0 5 9 6 19 3 22 -3 4 -6 1 -6 -6z"/>
<path d="M6511 4614 c5 -30 -2 -42 -23 -38 -13 2 -16 1 -8 -2 8 -4 23 -11 32
-15 11 -6 19 -5 24 3 4 7 3 8 -4 4 -7 -4 -12 -1 -12 8 0 8 5 16 11 18 7 2 5 9
-5 18 -10 7 -16 9 -15 4z"/>
<path d="M6191 4593 c7 -10 15 -20 16 -22 2 -2 3 3 3 11 0 9 -7 19 -16 22 -15
6 -15 4 -3 -11z"/>
<path d="M6266 4595 c-3 -9 0 -15 9 -15 9 0 12 6 9 15 -4 8 -7 15 -9 15 -2 0
-5 -7 -9 -15z"/>
<path d="M6360 4599 c0 -6 -7 -8 -16 -5 -14 5 -15 4 -5 -8 7 -8 10 -19 7 -25
-3 -5 0 -12 6 -14 8 -3 6 -6 -4 -6 -11 -1 -18 6 -18 16 0 15 -2 14 -15 -3 -18
-24 -19 -40 -2 -25 8 6 17 8 20 5 3 -4 14 -3 24 1 31 14 42 14 53 0 8 -10 8
-19 1 -34 -12 -21 0 -37 19 -26 6 3 10 0 10 -7 0 -8 14 -13 38 -14 20 0 31 1
24 4 -6 2 -9 8 -6 14 5 7 -2 9 -20 4 -19 -5 -25 -3 -21 4 4 6 3 10 -2 9 -19
-3 -34 2 -29 10 7 11 25 9 45 -3 11 -7 12 -6 5 5 -16 26 -12 34 18 35 27 1 28
0 12 -17 -16 -17 -16 -19 -1 -19 11 0 14 -5 10 -17 -5 -12 -3 -14 7 -8 8 5 11
4 6 -3 -3 -6 -2 -13 3 -16 5 -3 11 3 14 14 3 12 13 18 26 17 22 -1 28 -12 11
-22 -6 -4 -8 -11 -5 -16 4 -5 -1 -12 -9 -15 -9 -3 -16 -10 -16 -15 0 -5 9 -4
20 3 14 9 23 9 30 2 8 -8 4 -13 -15 -18 -14 -4 -23 -11 -20 -16 3 -6 1 -10 -4
-10 -6 0 -11 4 -11 8 0 5 -16 9 -35 9 -38 0 -43 -8 -20 -27 11 -9 15 -9 15 -1
0 7 5 9 10 6 6 -3 10 0 10 7 0 10 2 10 9 -1 13 -20 51 -22 43 -3 -3 10 0 13 9
10 8 -3 15 -10 15 -16 1 -7 2 -17 3 -24 1 -9 4 -9 13 0 9 9 7 16 -7 32 -10 11
-13 20 -7 20 18 0 15 14 -8 38 l-20 21 21 11 c24 13 41 4 19 -10 -10 -7 -11
-10 -2 -10 6 0 11 -3 11 -7 -3 -19 2 -33 11 -33 6 0 6 9 0 25 -7 17 -6 25 1
25 8 0 8 4 0 13 -6 8 -8 17 -5 20 4 4 -3 5 -15 2 -11 -2 -21 1 -21 7 0 5 -7 7
-16 4 -14 -5 -15 -4 -5 8 9 10 9 16 1 21 -8 5 -8 10 0 20 8 10 8 15 -1 21 -8
4 -9 3 -5 -4 4 -7 2 -12 -3 -12 -6 0 -11 -7 -11 -15 0 -8 5 -15 10 -15 6 0 1
-9 -11 -21 -20 -20 -22 -20 -38 -4 -15 15 -15 16 4 13 12 -2 21 3 23 14 2 11
-3 17 -15 17 -10 0 -29 1 -43 3 -17 2 -28 -4 -35 -19 l-12 -23 -21 25 -22 25
29 0 c31 0 36 19 13 42 -9 9 -12 9 -12 -1 0 -10 -3 -11 -13 -2 -10 8 -14 7
-14 -4 0 -8 5 -15 11 -15 19 0 -18 -20 -38 -20 -14 0 -17 5 -12 25 4 14 4 25
1 25 -3 0 -5 -5 -5 -11z m90 -13 c0 -3 -4 -8 -10 -11 -5 -3 -10 -1 -10 4 0 6
5 11 10 11 6 0 10 -2 10 -4z"/>
<path d="M3716 4584 c-9 -24 -7 -27 9 -10 17 17 19 26 6 26 -5 0 -12 -7 -15
-16z"/>
<path d="M3870 4580 c-9 -6 -10 -10 -3 -10 6 0 15 5 18 10 8 12 4 12 -15 0z"/>
<path d="M3933 4573 c4 -3 2 -12 -3 -18 -7 -9 -6 -16 4 -24 12 -10 15 -7 14
18 -1 17 -6 31 -11 31 -6 0 -7 -3 -4 -7z"/>
<path d="M3965 4569 c-4 -6 -4 -13 -1 -16 3 -4 6 -1 6 6 0 7 5 9 12 5 7 -4 8
-3 4 4 -9 15 -13 15 -21 1z"/>
<path d="M3837 4550 c-3 -11 -2 -22 3 -25 4 -3 10 4 13 15 3 11 2 22 -3 25 -4
3 -10 -4 -13 -15z"/>
<path d="M6240 4565 c0 -2 6 -8 13 -14 10 -8 14 -7 14 2 0 8 -6 14 -14 14 -7
0 -13 -1 -13 -2z"/>
<path d="M3687 4554 c-4 -4 -7 -14 -7 -23 0 -11 3 -12 11 -4 6 6 10 16 7 23
-2 6 -7 8 -11 4z"/>
<path d="M6220 4556 c0 -2 8 -10 18 -17 15 -13 16 -12 3 4 -13 16 -21 21 -21
13z"/>
<path d="M3885 4540 c-3 -6 1 -7 9 -4 18 7 21 14 7 14 -6 0 -13 -4 -16 -10z"/>
<path d="M3716 4525 c-11 -8 -16 -15 -12 -15 4 0 0 -7 -8 -16 -25 -24 -19 -33
14 -24 20 6 30 5 30 -2 0 -6 3 -8 6 -5 4 4 0 17 -9 30 -12 18 -13 27 -4 36 16
16 6 13 -17 -4z m9 -35 c-3 -5 -11 -10 -16 -10 -6 0 -7 5 -4 10 3 6 11 10 16
10 6 0 7 -4 4 -10z"/>
<path d="M3765 4529 c-4 -6 -5 -12 -2 -15 2 -3 7 2 10 11 7 17 1 20 -8 4z"/>
<path d="M3976 4528 c3 -5 10 -6 15 -3 13 9 11 12 -6 12 -8 0 -12 -4 -9 -9z"/>
<path d="M6264 4525 c-18 -15 -18 -15 0 -8 13 4 17 3 12 -5 -4 -7 -1 -12 10
-12 13 0 14 3 5 13 -6 8 -8 17 -4 20 12 13 -3 7 -23 -8z"/>
<path d="M6375 4531 c3 -5 -3 -12 -12 -14 -10 -3 -6 -4 10 -4 30 1 36 12 11
21 -8 3 -12 2 -9 -3z"/>
<path d="M3911 4513 c7 -12 15 -20 18 -17 3 2 -3 12 -13 22 -17 16 -18 16 -5
-5z"/>
<path d="M3640 4502 c0 -10 -6 -24 -12 -31 -11 -11 -9 -11 8 -1 14 8 20 20 16
32 -6 23 -12 23 -12 0z"/>
<path d="M3876 4501 c-4 -5 -2 -12 3 -15 5 -4 12 -2 15 3 4 5 2 12 -3 15 -5 4
-12 2 -15 -3z"/>
<path d="M3806 4484 c-8 -22 -8 -54 2 -54 4 0 7 16 8 35 1 39 -1 42 -10 19z"/>
<path d="M6278 4483 c7 -3 16 -2 19 1 4 3 -2 6 -13 5 -11 0 -14 -3 -6 -6z"/>
<path d="M3577 4465 c3 -8 9 -12 14 -9 12 7 11 11 -5 17 -10 4 -13 1 -9 -8z"/>
<path d="M3760 4470 c0 -5 5 -10 10 -10 6 0 10 5 10 10 0 6 -4 10 -10 10 -5 0
-10 -4 -10 -10z"/>
<path d="M3834 4471 c4 -5 0 -12 -6 -14 -8 -3 -6 -6 5 -6 9 -1 17 6 17 14 0 8
-5 15 -11 15 -5 0 -8 -4 -5 -9z"/>
<path d="M3896 4471 c-4 -5 -2 -12 3 -15 5 -4 12 -2 15 3 4 5 2 12 -3 15 -5 4
-12 2 -15 -3z"/>
<path d="M6391 4453 c0 -10 3 -13 5 -6 3 7 13 9 22 6 15 -4 15 -3 2 6 -22 15
-30 14 -29 -6z"/>
<path d="M6551 4454 c0 -11 3 -14 6 -6 3 7 2 16 -1 19 -3 4 -6 -2 -5 -13z"/>
<path d="M3706 4451 c-3 -5 1 -11 9 -15 8 -3 15 -1 15 4 0 13 -18 22 -24 11z"/>
<path d="M3875 4440 c3 -5 8 -10 11 -10 2 0 4 5 4 10 0 6 -5 10 -11 10 -5 0
-7 -4 -4 -10z"/>
<path d="M6423 4433 c9 -2 17 -8 17 -13 0 -5 -8 -11 -17 -13 -12 -3 -10 -5 7
-6 19 -1 26 4 27 19 1 16 -4 20 -25 19 -17 -1 -21 -3 -9 -6z"/>
<path d="M6477 4423 c3 -7 9 -10 14 -7 14 8 11 21 -5 21 -8 0 -12 -6 -9 -14z"/>
<path d="M6521 4431 c-10 -6 -10 -10 -1 -16 13 -8 24 -1 19 14 -3 6 -10 7 -18
2z"/>
<path d="M6693 4415 c0 -8 4 -12 9 -9 5 3 6 10 3 15 -9 13 -12 11 -12 -6z"/>
<path d="M3630 4406 c0 -2 7 -7 16 -10 8 -3 12 -2 9 4 -6 10 -25 14 -25 6z"/>
<path d="M3716 4398 c3 -5 10 -6 15 -3 13 9 11 12 -6 12 -8 0 -12 -4 -9 -9z"/>
<path d="M6678 4383 c7 -3 16 -2 19 1 4 3 -2 6 -13 5 -11 0 -14 -3 -6 -6z"/>
<path d="M6651 4364 c0 -11 3 -14 6 -6 3 7 2 16 -1 19 -3 4 -6 -2 -5 -13z"/>
<path d="M6520 4354 c0 -10 28 -33 33 -27 3 3 0 12 -8 19 -14 15 -25 18 -25 8z"/>
<path d="M6673 4337 c0 -7 9 -14 20 -14 11 -1 18 -1 16 0 -2 2 -11 8 -20 15
-12 9 -16 9 -16 -1z"/>
<path d="M6566 4313 c-6 -14 -5 -15 5 -6 7 7 10 15 7 18 -3 3 -9 -2 -12 -12z"/>
<path d="M6627 4305 c3 -8 9 -12 14 -9 12 7 11 11 -5 17 -10 4 -13 1 -9 -8z"/>
<path d="M4925 4394 c-218 -24 -475 -103 -655 -202 -163 -90 -333 -222 -366
-284 -30 -58 -10 -144 44 -190 62 -52 149 -43 217 22 46 43 178 135 258 178
106 58 243 110 370 139 99 24 133 27 297 27 155 0 202 -3 287 -22 251 -55 468
-160 665 -323 83 -69 145 -75 217 -22 67 51 79 149 27 218 -32 42 -155 137
-269 207 -172 107 -393 194 -586 229 -103 20 -409 33 -506 23z m328 -13 c27 0
46 -5 42 -10 -3 -6 8 -8 28 -4 60 9 261 -37 285 -66 8 -9 10 -10 6 -2 -10 20
29 9 146 -40 165 -70 356 -182 343 -202 -3 -6 -1 -7 6 -3 13 8 118 -71 114
-85 -2 -5 0 -8 5 -7 14 5 49 -27 67 -61 47 -92 -27 -201 -137 -201 -38 0 -55
6 -90 34 -24 18 -42 39 -40 45 1 7 -2 10 -7 7 -4 -3 -28 9 -52 28 -64 48 -117
80 -218 131 -91 46 -314 125 -352 125 -11 0 -18 3 -16 8 3 4 -14 8 -37 9 -22
1 -81 6 -131 10 -102 9 -309 0 -393 -17 -90 -19 -262 -77 -341 -115 -40 -19
-77 -33 -82 -29 -5 3 -8 0 -7 -8 2 -7 -5 -12 -14 -12 -10 1 -16 -1 -14 -5 3
-4 -32 -31 -76 -61 -44 -30 -100 -72 -124 -93 -24 -21 -48 -35 -54 -32 -6 4
-9 1 -8 -7 2 -9 -13 -13 -57 -14 -58 -2 -61 0 -98 39 -33 34 -38 45 -33 71 4
22 3 27 -4 16 -18 -27 -11 32 9 75 21 47 45 70 62 59 7 -4 9 -3 6 3 -8 13 26
45 44 41 8 -2 13 2 12 9 -3 15 95 86 108 78 5 -4 8 -1 7 5 -3 11 25 29 150 97
99 54 285 120 430 153 85 20 279 38 377 35 50 -1 112 -3 138 -4z"/>
<path d="M5100 4355 c-13 -14 -30 -23 -36 -21 -7 3 -15 -2 -18 -11 -5 -13 -9
-13 -24 -2 -15 13 -16 12 -3 -4 10 -12 17 -15 25 -7 17 17 30 11 15 -7 -13
-15 -12 -15 9 -4 18 10 27 10 38 1 11 -10 15 -9 20 4 4 9 4 20 0 23 -3 4 -6 2
-6 -4 0 -6 -9 -9 -20 -6 -16 4 -18 8 -9 19 6 8 15 11 20 8 5 -3 9 1 9 10 0 8
6 17 13 19 6 3 7 6 1 6 -6 1 -21 -10 -34 -24z"/>
<path d="M4889 4358 c-5 -19 -6 -38 -1 -38 24 1 41 40 17 40 -8 0 -15 -1 -16
-2z"/>
<path d="M5164 4332 c6 -17 4 -21 -8 -16 -20 8 -21 -3 -2 -21 12 -12 15 -11
19 7 6 21 7 21 25 5 16 -14 19 -15 19 -2 0 8 -6 15 -13 15 -7 0 -20 8 -30 17
-16 16 -16 16 -10 -5z"/>
<path d="M5293 4333 c0 -7 11 -13 24 -13 13 0 23 4 23 9 0 5 -10 11 -23 13
-15 3 -24 0 -24 -9z"/>
<path d="M4952 4314 c-7 -8 -8 -14 -3 -14 10 0 25 19 20 25 -2 1 -10 -3 -17
-11z"/>
<path d="M5239 4322 c-8 -40 -5 -49 14 -48 11 1 22 8 24 16 4 13 3 13 -6 0 -5
-8 -13 -11 -17 -7 -4 4 0 15 9 25 15 17 15 18 -3 19 -11 1 -21 -1 -21 -5z"/>
<path d="M4775 4310 c-7 -12 -7 -12 23 -15 27 -3 28 1 3 15 -13 7 -22 7 -26 0z"/>
<path d="M5350 4316 c0 -2 14 -6 30 -8 17 -3 30 -1 30 4 0 4 -13 8 -30 8 -16
0 -30 -2 -30 -4z"/>
<path d="M4980 4306 c0 -2 8 -10 18 -17 15 -13 16 -12 3 4 -13 16 -21 21 -21
13z"/>
<path d="M5293 4291 c0 -11 5 -18 9 -15 4 3 5 11 1 19 -7 21 -12 19 -10 -4z"/>
<path d="M4657 4285 c3 -8 9 -12 14 -9 12 7 11 11 -5 17 -10 4 -13 1 -9 -8z"/>
<path d="M5540 4285 c7 -9 15 -13 17 -11 7 7 -7 26 -19 26 -6 0 -6 -6 2 -15z"/>
<path d="M4904 4263 c-4 -16 -6 -32 -5 -37 1 -5 -5 -4 -13 3 -12 10 -14 9 -9
-8 3 -12 9 -19 13 -16 10 6 32 -20 23 -28 -3 -4 0 -7 8 -7 11 0 11 -2 1 -9 -8
-4 -25 -7 -39 -5 -13 1 -22 0 -18 -4 11 -12 106 -10 102 2 -2 6 -9 11 -15 11
-6 0 -19 10 -28 23 -15 22 -15 25 3 44 16 20 17 21 1 15 -19 -7 -25 8 -8 18
12 8 13 25 1 25 -5 0 -12 -12 -17 -27z"/>
<path d="M5075 4280 c-4 -6 -11 -8 -16 -5 -5 4 -9 1 -9 -5 0 -8 9 -10 25 -6
14 4 25 3 25 -2 0 -4 11 -8 24 -8 18 0 22 4 17 21 -5 18 -6 18 -9 2 -3 -17 -6
-17 -27 -3 -15 10 -26 12 -30 6z"/>
<path d="M5197 4279 c7 -7 15 -10 18 -7 3 3 -2 9 -12 12 -14 6 -15 5 -6 -5z"/>
<path d="M4582 4267 c-20 -27 -25 -40 -12 -32 10 6 12 3 7 -11 -7 -18 -6 -18
6 -2 11 13 16 15 25 6 9 -9 12 -9 12 2 0 9 6 8 22 -6 l22 -19 -20 27 c-27 37
-50 50 -62 35z m33 -19 c5 -4 0 -6 -13 -5 -22 1 -27 8 -15 20 3 4 9 4 12 0 3
-4 10 -11 16 -15z"/>
<path d="M4800 4265 c-7 -9 -8 -15 -2 -15 5 0 12 7 16 15 3 8 4 15 2 15 -2 0
-9 -7 -16 -15z"/>
<path d="M4970 4270 c0 -5 5 -10 11 -10 5 0 7 5 4 10 -3 6 -8 10 -11 10 -2 0
-4 -4 -4 -10z"/>
<path d="M5307 4265 c-18 -13 -18 -14 2 -24 14 -8 22 -8 27 1 4 7 3 8 -4 4 -7
-4 -12 -1 -12 8 0 8 8 17 18 19 12 3 13 5 2 6 -8 0 -23 -6 -33 -14z"/>
<path d="M5365 4270 c3 -5 11 -10 16 -10 6 0 7 5 4 10 -3 6 -11 10 -16 10 -6
0 -7 -4 -4 -10z"/>
<path d="M5511 4267 c-1 -23 17 -57 29 -57 5 0 6 7 3 17 -4 10 -2 14 4 10 5
-3 10 0 10 7 0 8 -7 13 -16 11 -9 -1 -19 5 -23 14 -6 14 -7 13 -7 -2z"/>
<path d="M5610 4272 c0 -5 3 -12 8 -16 4 -4 7 -13 7 -18 0 -6 6 -12 13 -14 7
-1 8 0 2 3 -5 2 -8 9 -4 14 3 5 -2 16 -10 25 -9 8 -16 11 -16 6z"/>
<path d="M5470 4263 c16 -8 12 -23 -7 -23 -16 -1 -16 -2 1 -15 11 -8 23 -15
27 -15 12 0 -6 54 -19 56 -7 1 -8 0 -2 -3z"/>
<path d="M5573 4253 c0 -9 4 -10 14 -2 7 6 13 12 13 14 0 1 -6 2 -13 2 -8 0
-14 -6 -14 -14z"/>
<path d="M4650 4251 c0 -5 9 -7 20 -4 11 3 20 7 20 9 0 2 -9 4 -20 4 -11 0
-20 -4 -20 -9z"/>
<path d="M4818 4239 c-4 -23 -3 -25 18 -15 12 6 20 14 17 18 -2 5 -8 6 -13 3
-4 -3 -10 1 -12 7 -3 7 -7 1 -10 -13z"/>
<path d="M5190 4244 c4 -34 0 -37 -22 -18 -23 19 -23 19 -5 -2 9 -11 15 -23
12 -26 -3 -2 2 -5 9 -5 8 0 14 5 13 11 -1 6 3 10 9 9 16 -3 12 39 -4 45 -9 3
-13 -3 -12 -14z"/>
<path d="M5230 4249 c0 -4 4 -10 10 -14 12 -7 1 -36 -19 -52 -10 -8 -12 -12
-4 -13 7 0 10 -6 7 -14 -6 -16 -35 -10 -31 6 1 6 -15 12 -37 13 -24 2 -33 -1
-25 -6 15 -9 7 -12 -28 -9 -13 1 -23 -4 -23 -10 0 -6 4 -9 9 -5 5 3 16 -2 24
-10 9 -9 23 -12 33 -8 12 4 15 3 10 -5 -5 -8 2 -12 21 -11 17 1 21 3 11 6 -19
5 -23 15 -11 26 3 4 12 2 19 -4 11 -9 21 -4 43 20 16 17 25 34 20 37 -17 10
-9 24 14 25 16 1 18 2 5 6 -10 2 -18 10 -18 17 0 7 -7 13 -15 13 -8 0 -15 -4
-15 -8z m-55 -98 c-7 -12 -45 -21 -45 -11 0 12 33 30 42 23 5 -2 6 -8 3 -12z"/>
<path d="M5663 4240 c-1 -10 6 -24 15 -31 14 -11 15 -11 5 1 -18 19 -16 35 1
21 11 -9 16 -9 22 1 4 7 3 10 -1 5 -5 -4 -16 0 -25 8 -14 13 -16 12 -17 -5z"/>
<path d="M4733 4243 c-17 -6 -17 -20 0 -20 8 0 14 6 14 14 0 7 -1 13 -1 12 -1
0 -7 -3 -13 -6z"/>
<path d="M4760 4245 c0 -3 9 -14 20 -25 22 -22 26 -14 6 13 -13 16 -26 23 -26
12z"/>
<path d="M5370 4229 c0 -11 4 -18 10 -14 5 3 7 12 3 20 -7 21 -13 19 -13 -6z"/>
<path d="M5403 4242 c-7 -4 -9 -13 -4 -21 6 -9 10 -7 14 8 3 12 4 21 4 21 -1
0 -7 -4 -14 -8z"/>
<path d="M4475 4231 c-3 -5 0 -13 6 -17 8 -5 9 -3 4 6 -6 10 -4 12 9 7 10 -4
15 -3 11 3 -8 13 -22 13 -30 1z"/>
<path d="M4524 4215 c-3 -14 -10 -22 -15 -19 -5 3 -9 1 -9 -4 0 -6 7 -12 15
-16 8 -3 14 -2 14 2 -4 22 2 42 11 37 6 -3 10 1 10 9 0 25 -19 18 -26 -9z"/>
<path d="M4688 4233 c7 -3 16 -2 19 1 4 3 -2 6 -13 5 -11 0 -14 -3 -6 -6z"/>
<path d="M5006 4232 c-3 -5 1 -9 9 -9 8 0 12 4 9 9 -3 4 -7 8 -9 8 -2 0 -6 -4
-9 -8z"/>
<path d="M5057 4225 c-9 -7 -17 -15 -17 -19 0 -9 23 -3 38 12 8 7 19 9 25 5 7
-3 8 -2 4 2 -12 14 -32 14 -50 0z"/>
<path d="M5120 4231 c0 -6 4 -12 8 -15 5 -3 9 1 9 9 0 8 -4 15 -9 15 -4 0 -8
-4 -8 -9z"/>
<path d="M5720 4226 c0 -7 -7 -19 -15 -26 -8 -7 -15 -18 -15 -24 0 -6 8 -2 17
9 13 16 15 17 10 3 -4 -10 -2 -28 3 -40 8 -21 9 -21 9 -3 1 15 4 16 13 7 15
-15 28 -15 28 -1 0 5 -4 7 -10 4 -5 -3 -10 -2 -10 4 0 5 6 11 13 14 6 2 1 2
-12 0 -22 -4 -23 -2 -18 31 3 20 2 36 -4 36 -5 0 -9 -6 -9 -14z"/>
<path d="M4975 4220 c-3 -5 -1 -10 4 -10 6 0 11 5 11 10 0 6 -2 10 -4 10 -3 0
-8 -4 -11 -10z"/>
<path d="M5435 4211 c-3 -6 2 -14 11 -19 25 -14 11 -41 -18 -35 -13 2 -34 0
-46 -4 -21 -8 -22 -10 -8 -22 13 -11 16 -11 16 1 0 16 35 18 58 4 7 -4 12 -4
11 1 -3 20 14 52 25 46 6 -4 5 1 -2 9 -8 10 -20 14 -29 11 -11 -4 -14 -2 -9 5
4 7 5 12 2 12 -3 0 -7 -4 -11 -9z"/>
<path d="M5601 4207 c-8 -10 -7 -14 2 -14 8 0 14 6 14 14 0 7 -1 13 -2 13 -2
0 -8 -6 -14 -13z"/>
<path d="M4593 4203 c-17 -6 -16 -38 1 -52 11 -9 15 -9 18 1 3 9 6 9 12 0 4
-7 2 -12 -4 -12 -6 0 -9 -4 -6 -9 4 -5 -2 -7 -13 -4 -10 3 -22 0 -25 -6 -4 -6
-1 -11 6 -11 8 0 6 -5 -5 -11 -9 -6 -15 -14 -12 -20 4 -5 1 -9 -4 -9 -6 0 -11
4 -11 10 0 5 -7 7 -15 4 -8 -4 -12 -10 -9 -15 3 -5 9 -7 14 -4 14 9 31 -30 20
-43 -7 -8 -7 -9 1 -3 6 5 19 7 28 4 14 -4 14 -3 -1 9 -25 21 -18 54 14 73 15
9 28 21 28 26 0 6 5 7 10 4 6 -3 10 -1 10 5 0 6 5 8 12 4 8 -5 9 -2 5 9 -4 10
-1 17 5 17 6 0 9 2 6 5 -8 9 -38 -6 -32 -16 3 -5 1 -9 -4 -9 -16 0 -22 13 -11
26 7 8 7 14 -1 19 -5 3 -10 3 -10 -2 0 -4 -4 -3 -8 3 -4 6 -13 9 -19 7z m27
-28 c-14 -17 -30 -20 -30 -6 0 5 8 12 18 14 9 3 19 5 21 6 2 0 -2 -6 -9 -14z"/>
<path d="M4737 4198 c-3 -10 -2 -18 3 -18 5 0 3 -12 -5 -27 -14 -27 -11 -48 5
-38 5 3 7 14 5 24 -3 14 1 18 17 13 13 -3 18 -11 15 -23 -5 -17 -4 -17 21 -1
25 16 26 16 19 -1 -4 -11 -2 -17 9 -17 9 0 12 5 8 11 -3 6 0 16 7 21 11 8 10
9 -3 5 -9 -3 -19 -1 -22 6 -3 9 -5 9 -5 0 -2 -20 -48 9 -58 37 -7 21 -10 22
-16 8z"/>
<path d="M5290 4205 c0 -29 35 -43 44 -19 5 12 2 15 -11 10 -9 -4 -20 -1 -25
6 -4 7 -8 9 -8 3z"/>
<path d="M4796 4185 c-11 -8 -15 -15 -9 -15 6 0 16 7 23 15 16 19 11 19 -14 0z"/>
<path d="M4968 4193 c6 -3 10 -9 6 -14 -3 -5 1 -9 9 -9 22 0 16 26 -7 27 -12
1 -15 -1 -8 -4z"/>
<path d="M5050 4192 c0 -15 39 -22 47 -9 3 7 3 9 -2 5 -4 -4 -16 -3 -26 3 -11
5 -19 6 -19 1z"/>
<path d="M5633 4183 c1 -10 -2 -19 -8 -19 -5 -1 -9 2 -7 8 1 5 -2 7 -8 3 -16
-10 -12 -23 11 -30 19 -6 19 -8 5 -31 -9 -13 -17 -31 -19 -41 -1 -10 -6 -24
-10 -31 -5 -7 -2 -14 7 -17 9 -3 24 -7 33 -11 10 -3 14 -2 10 2 -4 4 5 13 20
21 24 12 29 12 38 -1 7 -9 16 -12 25 -6 9 5 19 5 27 -2 7 -6 13 -7 13 -3 0 4
7 2 15 -5 8 -6 19 -9 25 -5 7 5 5 11 -7 20 -11 9 -22 10 -29 4 -8 -6 -14 -4
-18 6 -3 9 -2 14 3 10 5 -3 11 1 14 7 3 9 10 7 21 -7 8 -11 16 -15 16 -9 0 5
-6 16 -12 23 -11 10 -10 11 5 6 9 -4 17 -10 18 -14 0 -3 2 -14 4 -25 6 -31 -5
-47 -25 -36 -22 12 -50 -13 -29 -26 7 -4 9 -3 5 4 -10 17 11 24 26 9 7 -8 19
-12 26 -9 8 2 10 -2 5 -15 -4 -13 -1 -12 15 6 27 30 27 34 2 26 -20 -6 -28 9
-11 19 10 7 9 25 -3 44 -4 7 -5 16 -2 19 3 4 6 1 6 -6 0 -7 4 -10 9 -6 5 3 13
0 17 -6 4 -7 3 -9 -4 -6 -6 5 -8 -1 -5 -14 5 -20 6 -20 17 3 11 20 9 25 -7 34
-11 6 -16 14 -11 17 13 8 17 67 5 67 -14 0 -23 -18 -12 -24 18 -11 4 -40 -22
-47 -14 -4 -28 -5 -31 -2 -3 3 -13 0 -22 -8 -13 -11 -17 -11 -25 1 -21 36 -26
40 -41 35 -9 -4 -14 -16 -12 -31 1 -13 -2 -24 -8 -24 -6 0 -7 7 -4 16 5 14 4
15 -9 4 -8 -7 -15 -9 -16 -4 0 5 -3 22 -5 38 -4 23 -2 27 12 22 12 -5 15 -2
10 11 -4 11 2 8 13 -7 20 -25 20 -25 18 -2 -1 12 -7 22 -14 22 -7 0 -13 6 -13
13 0 8 -4 7 -10 -3 -9 -13 -11 -13 -19 0 -5 8 -7 18 -5 22 3 4 0 8 -5 8 -6 0
-10 -8 -8 -17z m15 -111 c2 -14 8 -19 19 -15 10 4 14 2 9 -5 -3 -6 -14 -10
-24 -10 -9 0 -24 -1 -32 -4 -8 -3 -12 -3 -7 -1 4 3 7 18 7 35 0 34 23 35 28 0z
m87 18 c3 -5 2 -10 -4 -10 -5 0 -13 5 -16 10 -3 6 -2 10 4 10 5 0 13 -4 16
-10z m5 -33 c0 -8 -6 -14 -13 -14 -8 0 -14 6 -14 14 0 7 6 13 14 13 7 0 13 -6
13 -13z"/>
<path d="M5793 4186 c0 -8 6 -12 14 -9 7 3 10 9 7 14 -8 14 -21 11 -21 -5z"/>
<path d="M4468 4173 c7 -3 16 -2 19 1 4 3 -2 6 -13 5 -11 0 -14 -3 -6 -6z"/>
<path d="M4557 4160 c3 -11 9 -20 14 -20 11 0 11 3 3 24 -9 23 -23 20 -17 -4z"/>
<path d="M4686 4155 c-9 -26 -7 -32 5 -12 6 10 9 21 6 23 -2 3 -7 -2 -11 -11z"/>
<path d="M5045 4160 c6 -10 4 -12 -8 -7 -9 3 -21 -1 -29 -11 -12 -16 -11 -16
6 -2 18 14 19 13 14 -6 -3 -13 0 -21 8 -21 7 0 11 4 8 9 -3 5 -1 15 6 23 8 10
8 15 -1 21 -8 5 -9 3 -4 -6z"/>
<path d="M5249 4168 c-6 -24 -5 -37 2 -32 5 3 6 11 3 17 -4 7 -3 8 2 4 12 -12
12 -30 -1 -39 -6 -5 -5 -8 3 -8 7 0 15 7 18 15 4 8 10 12 16 9 5 -3 7 -12 4
-20 -3 -8 1 -14 10 -14 12 0 13 4 2 23 -7 12 -11 27 -9 32 1 6 -1 7 -4 3 -4
-4 -16 -3 -26 3 -11 5 -19 8 -20 7z"/>
<path d="M5485 4160 c-3 -5 1 -10 10 -10 9 0 14 -4 11 -8 -2 -4 3 -8 13 -8 10
0 18 6 18 13 0 7 -2 11 -5 8 -3 -2 -13 0 -23 5 -12 7 -20 7 -24 0z"/>
<path d="M5800 4164 c-19 -6 -45 -44 -29 -44 5 0 7 -4 4 -10 -3 -5 -1 -10 5
-10 6 0 10 8 8 18 -2 9 6 25 17 34 21 18 20 19 -5 12z"/>
<path d="M4357 4147 c3 -5 7 -6 10 -4 2 3 18 1 34 -3 22 -7 29 -5 29 5 0 9
-12 13 -39 12 -22 -1 -37 -5 -34 -10z"/>
<path d="M4441 4153 c6 -35 -1 -42 -28 -32 -16 6 -24 6 -18 1 6 -5 20 -13 33
-17 18 -5 22 -2 22 14 0 17 5 20 28 15 20 -4 32 -1 43 13 13 16 13 17 -3 4
-12 -9 -18 -10 -18 -2 0 6 -5 11 -11 11 -5 0 -7 -4 -4 -10 3 -5 2 -10 -4 -10
-5 0 -13 5 -16 10 -7 12 -26 14 -24 3z"/>
<path d="M4320 4140 c0 -5 5 -10 11 -10 5 0 7 5 4 10 -3 6 -8 10 -11 10 -2 0
-4 -4 -4 -10z"/>
<path d="M4530 4135 c-11 -13 -10 -14 4 -9 9 3 16 10 16 15 0 13 -6 11 -20 -6z"/>
<path d="M5320 4131 c0 -5 5 -13 10 -16 6 -3 10 -2 10 4 0 5 -4 13 -10 16 -5
3 -10 2 -10 -4z"/>
<path d="M5470 4122 c-8 -9 -13 -16 -11 -15 2 2 14 -5 25 -14 12 -10 15 -11 9
-3 -15 17 -17 34 -3 25 6 -3 7 1 4 9 -3 9 -7 16 -8 15 0 0 -8 -8 -16 -17z"/>
<path d="M5596 4125 c4 -8 9 -15 13 -15 4 0 8 7 8 15 0 8 -6 15 -13 15 -8 0
-11 -6 -8 -15z"/>
<path d="M5543 4111 c-8 -13 -6 -19 14 -28 24 -12 25 -12 8 6 -16 18 -15 19 2
23 15 3 16 5 2 10 -9 3 -20 -1 -26 -11z"/>
<path d="M4646 4112 c-3 -5 8 -6 25 -4 16 2 29 6 29 8 0 8 -49 4 -54 -4z"/>
<path d="M4978 4113 c6 -2 18 -2 25 0 6 3 1 5 -13 5 -14 0 -19 -2 -12 -5z"/>
<path d="M5073 4113 c9 -2 23 -2 30 0 6 3 -1 5 -18 5 -16 0 -22 -2 -12 -5z"/>
<path d="M5885 4113 c3 -3 0 -12 -6 -20 -9 -10 -8 -13 4 -13 15 0 18 24 4 35
-4 3 -5 2 -2 -2z"/>
<path d="M4341 4084 c0 -11 3 -14 6 -6 3 7 2 16 -1 19 -3 4 -6 -2 -5 -13z"/>
<path d="M4387 4093 c-11 -10 -8 -45 2 -38 18 11 101 13 101 2 0 -15 14 1 16
19 1 9 0 13 -3 10 -4 -3 -13 0 -21 7 -11 8 -14 8 -9 0 4 -6 3 -14 -3 -18 -5
-3 -10 -2 -10 4 0 10 -45 5 -63 -6 -6 -4 -8 1 -4 10 7 18 5 21 -6 10z"/>
<path d="M4606 4085 c-11 -8 -14 -15 -7 -15 7 0 10 -4 7 -8 -9 -15 9 -31 24
-22 13 8 12 10 -3 10 -10 0 -15 5 -12 10 4 6 12 7 18 3 8 -5 8 -2 0 9 -7 8
-10 18 -6 21 11 12 -1 7 -21 -8z"/>
<path d="M5960 4085 c-10 -12 -10 -15 2 -15 8 0 15 7 15 15 0 8 -1 15 -2 15
-2 0 -8 -7 -15 -15z"/>
<path d="M4291 4081 c-8 -5 -9 -11 -3 -15 5 -3 12 1 16 9 6 17 6 18 -13 6z"/>
<path d="M4220 4069 c0 -4 8 -9 18 -11 10 -3 19 0 19 6 0 7 -9 12 -19 12 -10
0 -18 -3 -18 -7z"/>
<path d="M6006 4071 c-4 -5 -1 -13 4 -16 8 -5 6 -13 -5 -25 -16 -17 -16 -18 2
-16 12 2 18 12 19 30 1 28 -10 43 -20 27z"/>
<path d="M5900 4060 c0 -5 0 -12 0 -15 0 -12 14 -4 16 10 1 8 -2 15 -7 15 -5
0 -9 -4 -9 -10z"/>
<path d="M4350 4034 c-11 -29 -13 -55 -4 -78 6 -16 24 -12 24 5 0 6 -4 7 -10
4 -5 -3 -10 1 -10 9 0 10 6 13 15 10 8 -4 15 -1 15 6 0 6 -4 9 -9 5 -16 -9
-22 12 -11 39 5 14 7 26 5 26 -3 0 -10 -12 -15 -26z"/>
<path d="M4413 4048 c-10 -11 -9 -17 6 -29 22 -18 41 -22 41 -9 0 6 -5 10 -11
10 -5 0 -7 5 -3 12 4 6 3 8 -4 4 -6 -3 -12 1 -14 10 -3 15 -5 15 -15 2z"/>
<path d="M5952 4050 c2 -28 -4 -50 -13 -45 -6 4 -5 -2 2 -13 13 -21 35 -20 22
1 -4 7 0 7 10 -1 9 -8 20 -11 26 -8 14 9 41 -4 41 -20 0 -16 -37 -38 -44 -25
-8 12 4 20 20 14 16 -6 19 13 3 23 -16 9 -30 -9 -35 -47 -3 -19 -10 -38 -15
-43 -5 -6 -9 -15 -9 -20 0 -6 4 -5 8 1 6 10 13 9 30 -3 19 -13 21 -18 10 -32
-8 -10 -8 -13 -1 -9 6 4 14 1 16 -5 3 -7 6 -3 6 9 1 16 5 21 17 16 11 -4 12
-8 4 -13 -8 -5 -2 -10 15 -14 31 -8 47 0 21 10 -17 7 -23 34 -6 34 5 0 7 6 4
14 -3 8 -1 17 5 21 7 4 11 -4 11 -19 0 -14 -5 -26 -11 -26 -5 0 -7 -5 -4 -11
5 -7 14 -4 26 7 27 24 24 7 -6 -32 -14 -18 -25 -36 -25 -41 0 -4 5 0 11 10 6
9 15 15 21 11 7 -4 6 -9 -3 -15 -7 -4 -10 -11 -6 -15 8 -9 18 -1 21 18 1 7 5
19 9 26 5 6 5 17 2 22 -3 6 1 10 9 10 9 0 16 5 16 10 0 5 -3 9 -7 8 -19 -3
-43 16 -43 35 0 19 1 20 20 2 11 -10 23 -15 27 -12 3 4 0 7 -8 7 -11 0 -11 2
1 10 10 7 11 10 3 11 -23 3 -28 4 -42 13 -10 6 -12 5 -7 -3 4 -6 4 -11 -1 -10
-25 4 -43 -2 -37 -13 5 -8 2 -9 -9 -5 -9 3 -16 3 -15 -1 1 -4 -2 -15 -7 -25
-6 -14 -10 -15 -21 -6 -18 15 -18 30 0 23 9 -3 17 3 21 15 3 12 10 19 15 16 5
-3 11 -1 15 5 4 6 11 8 16 4 12 -7 1 66 -12 80 -5 6 -22 5 -44 -1 -29 -9 -37
-9 -42 3 -3 7 -9 11 -14 8 -5 -3 -9 0 -9 5 0 6 7 11 15 11 8 0 15 6 15 13 0 7
-9 13 -19 13 -11 0 -19 -3 -19 -6z m114 -87 c-10 -10 -19 5 -10 18 6 11 8 11
12 0 2 -7 1 -15 -2 -18z m-36 -42 c0 -14 -29 -21 -36 -9 -4 6 -3 8 4 4 6 -3
13 -2 17 4 8 12 15 13 15 1z m40 -49 c0 -13 -12 -22 -22 -16 -10 6 -1 24 13
24 5 0 9 -4 9 -8z"/>
<path d="M4267 4043 c-13 -12 -7 -25 6 -14 8 6 18 7 22 3 5 -4 5 -1 1 6 -8 13
-19 16 -29 5z"/>
<path d="M4310 4046 c0 -2 7 -7 16 -10 8 -3 12 -2 9 4 -6 10 -25 14 -25 6z"/>
<path d="M4510 4042 c-23 -11 -22 -29 3 -28 12 1 23 9 25 19 4 18 -3 20 -28 9z
m20 -12 c0 -5 -5 -10 -11 -10 -5 0 -7 5 -4 10 3 6 8 10 11 10 2 0 4 -4 4 -10z"/>
<path d="M4180 4019 c0 -5 5 -7 10 -4 6 3 10 8 10 11 0 2 -4 4 -10 4 -5 0 -10
-5 -10 -11z"/>
<path d="M5666 4011 c-4 -5 3 -7 14 -4 23 6 26 13 6 13 -8 0 -17 -4 -20 -9z"/>
<path d="M4136 3995 c4 -8 11 -15 16 -15 6 0 5 6 -2 15 -7 8 -14 15 -16 15 -2
0 -1 -7 2 -15z"/>
<path d="M4215 4000 c-3 -5 -1 -10 4 -10 6 0 11 5 11 10 0 6 -2 10 -4 10 -3 0
-8 -4 -11 -10z"/>
<path d="M4276 3998 c3 -5 10 -6 15 -3 13 9 11 12 -6 12 -8 0 -12 -4 -9 -9z"/>
<path d="M5890 3999 c0 -4 -3 -16 -7 -26 -4 -13 -1 -12 15 6 26 29 26 28 7 28
-8 0 -15 -4 -15 -8z"/>
<path d="M4310 3990 c-13 -8 -12 -10 3 -10 9 0 17 5 17 10 0 12 -1 12 -20 0z"/>
<path d="M5715 3991 c-3 -5 0 -13 6 -17 7 -4 9 -3 5 4 -3 5 0 13 6 15 9 4 10
6 1 6 -6 1 -14 -3 -18 -8z"/>
<path d="M6115 3990 c3 -5 8 -10 11 -10 2 0 4 5 4 10 0 6 -5 10 -11 10 -5 0
-7 -4 -4 -10z"/>
<path d="M6142 3983 c4 -18 21 -18 24 0 1 8 -5 14 -13 14 -7 0 -13 -7 -11 -14z"/>
<path d="M4237 3971 c-4 -17 -3 -21 5 -13 5 5 8 16 6 23 -3 8 -7 3 -11 -10z"/>
<path d="M4270 3955 c-7 -9 -8 -15 -2 -15 5 0 12 7 16 15 3 8 4 15 2 15 -2 0
-9 -7 -16 -15z"/>
<path d="M6124 3963 c4 -8 2 -13 -5 -13 -16 0 -5 -11 14 -14 8 -1 22 -8 31
-15 14 -11 16 -11 16 3 0 9 -5 16 -12 16 -6 0 -20 8 -31 18 -11 9 -17 11 -13
5z"/>
<path d="M4061 3951 c-12 -8 -12 -12 -2 -25 11 -12 11 -16 1 -16 -10 0 -10 -3
0 -15 9 -11 16 -13 23 -6 7 7 5 16 -6 29 -13 14 -14 21 -5 30 14 14 9 15 -11
3z"/>
<path d="M5856 3952 c-3 -5 1 -9 9 -9 8 0 12 4 9 9 -3 4 -7 8 -9 8 -2 0 -6 -4
-9 -8z"/>
<path d="M5916 3951 c-3 -5 2 -15 12 -22 15 -13 16 -12 3 4 -17 22 2 23 20 0
11 -13 11 -17 2 -20 -7 -3 -13 -11 -13 -20 0 -13 2 -13 15 1 20 19 19 29 -3
49 -21 19 -28 21 -36 8z"/>
<path d="M4000 3922 c-11 -12 -11 -17 -2 -20 7 -2 9 -8 6 -14 -4 -6 2 -6 14 1
21 11 27 48 7 48 -6 0 -17 -7 -25 -15z m30 -12 c0 -5 -2 -10 -4 -10 -3 0 -8 5
-11 10 -3 6 -1 10 4 10 6 0 11 -4 11 -10z"/>
<path d="M4103 3921 c1 -15 4 -17 14 -9 7 5 10 14 7 19 -10 16 -23 9 -21 -10z"/>
<path d="M4295 3929 c-4 -6 -5 -12 -2 -15 2 -3 7 2 10 11 7 17 1 20 -8 4z"/>
<path d="M4158 3916 c-24 -18 -23 -24 5 -21 12 1 32 3 44 4 16 1 21 5 16 17
-3 9 -9 12 -12 7 -9 -14 -41 -24 -41 -14 0 5 6 12 13 14 6 3 8 6 2 6 -5 0 -18
-6 -27 -13z"/>
<path d="M4246 3918 c3 -4 11 -5 19 -1 21 7 19 12 -4 10 -11 0 -18 -5 -15 -9z"/>
<path d="M6216 3922 c-2 -4 2 -16 10 -27 8 -10 14 -14 14 -8 0 7 -5 15 -10 18
-6 4 -8 11 -5 16 4 5 4 9 1 9 -3 0 -7 -3 -10 -8z"/>
<path d="M6173 3884 c0 -16 13 -19 21 -5 3 5 0 11 -7 14 -8 3 -14 -1 -14 -9z"/>
<path d="M4028 3877 c-22 -17 -17 -53 7 -49 13 3 16 -1 11 -15 -6 -16 -5 -16
12 2 18 19 18 21 1 39 -10 10 -16 23 -13 28 7 11 2 10 -18 -5z m8 -16 c-4 -5
-1 -11 6 -13 8 -3 6 -6 -4 -10 -11 -5 -15 -2 -13 10 5 23 4 22 11 22 3 0 3 -4
0 -9z"/>
<path d="M4095 3880 c-8 -13 9 -20 24 -11 10 6 9 10 -3 14 -8 3 -18 2 -21 -3z"/>
<path d="M4190 3886 c0 -3 9 -10 20 -16 11 -6 20 -8 20 -6 0 3 -9 10 -20 16
-11 6 -20 8 -20 6z"/>
<path d="M6197 3863 c-4 -3 -7 -13 -7 -21 0 -18 13 -7 16 13 2 17 1 18 -9 8z"/>
<path d="M4126 3843 c-6 -14 -5 -15 5 -6 7 7 10 15 7 18 -3 3 -9 -2 -12 -12z"/>
<path d="M4095 3823 c0 -22 -4 -27 -20 -25 -18 2 -19 2 -2 -8 9 -6 14 -17 11
-23 -5 -9 -4 -9 5 -1 15 13 27 84 14 84 -5 0 -9 -12 -8 -27z"/>
<path d="M4157 3816 c-4 -10 -1 -13 8 -9 8 3 12 9 9 14 -7 12 -11 11 -17 -5z"/>
<path d="M6146 3803 c-6 -14 -5 -15 5 -6 7 7 10 15 7 18 -3 3 -9 -2 -12 -12z"/>
<path d="M6056 3773 c-6 -14 -5 -15 5 -6 7 7 10 15 7 18 -3 3 -9 -2 -12 -12z"/>
<path d="M6140 3770 c-9 -6 -10 -10 -3 -10 6 0 15 5 18 10 8 12 4 12 -15 0z"/>
<path d="M6156 3742 c-3 -5 1 -9 9 -9 8 0 15 4 15 9 0 4 -4 8 -9 8 -6 0 -12
-4 -15 -8z"/>
<path d="M4991 3709 c-164 -20 -344 -91 -466 -183 -79 -60 -107 -98 -113 -152
-6 -55 11 -95 55 -134 28 -25 42 -30 85 -30 46 0 61 6 136 56 148 99 257 134
413 134 158 0 279 -40 422 -139 63 -44 80 -51 122 -51 63 0 107 28 135 86 38
77 11 141 -95 226 -173 140 -458 217 -694 187z m313 -29 c139 -31 303 -100
290 -122 -4 -7 -3 -8 5 -4 14 9 114 -62 106 -75 -4 -5 1 -6 9 -3 9 3 24 -8 40
-33 50 -73 26 -172 -51 -208 -50 -24 -102 -15 -161 28 -26 20 -73 48 -103 63
-30 15 -56 30 -59 34 -3 3 -41 17 -85 30 -164 50 -382 25 -529 -60 -37 -22
-73 -37 -79 -33 -5 3 -7 1 -4 -4 11 -17 -85 -73 -124 -73 -40 0 -85 22 -81 38
1 7 -3 11 -10 10 -7 -2 -21 13 -31 32 -24 47 -17 102 20 148 43 53 224 174
198 132 -3 -6 1 -7 10 -3 13 4 14 8 4 14 -10 6 -9 10 6 15 11 4 38 14 60 24
43 18 191 57 240 63 90 12 246 5 329 -13z"/>
<path d="M5090 3662 c0 -4 11 -8 25 -8 28 0 24 8 -5 13 -11 2 -20 -1 -20 -5z"/>
<path d="M5164 3662 c4 -7 1 -14 -7 -18 -9 -3 -12 -14 -9 -30 3 -16 10 -23 18
-20 7 3 19 -3 26 -12 15 -20 39 -27 36 -11 -4 17 30 19 36 2 4 -10 2 -13 -8
-10 -8 3 -17 -1 -20 -9 -3 -9 -11 -12 -16 -9 -6 4 -9 1 -8 -6 2 -7 -8 -14 -22
-16 -14 -1 -34 -5 -45 -7 -11 -3 -26 -5 -32 -5 -7 -1 -13 -6 -13 -12 0 -5 5
-7 10 -4 13 8 42 -14 34 -26 -3 -5 -10 -9 -15 -9 -6 0 -8 4 -5 8 2 4 -7 8 -22
9 -27 2 -27 2 -3 -8 13 -5 21 -15 18 -22 -3 -8 5 -13 22 -14 14 -1 20 1 14 4
-24 9 -13 19 17 17 16 -1 28 2 25 6 -3 4 -15 6 -28 4 -16 -3 -15 -1 6 7 15 6
27 16 27 22 0 7 4 6 10 -3 7 -11 10 -11 10 -2 0 7 5 10 10 7 6 -4 8 -16 5 -28
-4 -15 -3 -18 3 -9 5 8 13 13 18 11 13 -3 33 41 27 58 -7 18 -11 14 -17 -21
-6 -36 -16 -46 -16 -18 0 14 -6 22 -16 22 -14 0 -14 3 -3 16 17 21 65 45 73
36 4 -3 4 1 1 10 -4 9 -2 19 4 23 6 3 11 11 11 18 0 6 -7 2 -15 -9 -13 -16
-16 -17 -25 -4 -5 8 -10 10 -10 4 0 -6 -7 -11 -15 -11 -8 0 -15 6 -15 14 0 15
-16 17 -25 3 -3 -5 -1 -10 6 -10 10 0 10 -3 1 -12 -14 -14 -33 0 -39 27 -2 8
-4 22 -6 30 -2 8 -7 18 -12 22 -4 4 -5 2 -1 -5z m9 -37 c4 -8 3 -16 -1 -19 -4
-3 -9 4 -9 15 -2 23 3 25 10 4z m13 -122 c-3 -22 -32 -25 -48 -5 -7 9 -8 13
-3 10 8 -4 23 -1 52 11 1 1 0 -7 -1 -16z"/>
<path d="M5258 3663 c7 -3 16 -2 19 1 4 3 -2 6 -13 5 -11 0 -14 -3 -6 -6z"/>
<path d="M5207 3631 c-10 -12 -9 -13 3 -6 8 5 25 8 38 6 12 -1 22 1 22 6 0 14
-51 9 -63 -6z"/>
<path d="M5080 3630 c0 -5 7 -7 15 -4 8 4 15 8 15 10 0 2 -7 4 -15 4 -8 0 -15
-4 -15 -10z"/>
<path d="M4890 3620 c0 -5 5 -10 11 -10 5 0 7 5 4 10 -3 6 -8 10 -11 10 -2 0
-4 -4 -4 -10z"/>
<path d="M5045 3620 c-3 -6 1 -7 9 -4 18 7 21 14 7 14 -6 0 -13 -4 -16 -10z"/>
<path d="M4920 3600 c-12 -11 -28 -17 -34 -13 -6 3 -6 0 1 -7 10 -11 16 -11
31 3 10 9 21 15 24 12 2 -3 5 2 5 10 0 19 1 19 -27 -5z"/>
<path d="M5107 3613 c-4 -6 -1 -14 5 -16 8 -3 6 -6 -4 -6 -10 -1 -18 4 -18 11
0 6 -3 8 -7 4 -8 -7 23 -36 38 -36 4 0 9 9 12 20 3 11 1 18 -3 15 -5 -3 -10 0
-12 7 -3 9 -6 9 -11 1z"/>
<path d="M4741 3586 c-10 -12 -8 -17 11 -26 21 -10 21 -10 5 3 -13 11 -15 16
-5 20 7 2 10 7 7 11 -3 4 -12 0 -18 -8z"/>
<path d="M4770 3589 c0 -13 49 -16 54 -4 3 8 -6 12 -25 11 -16 -1 -29 -4 -29
-7z"/>
<path d="M5336 3588 c3 -4 12 -4 21 -1 13 5 15 2 10 -11 -4 -10 -3 -15 3 -11
20 12 10 35 -14 33 -14 -1 -22 -6 -20 -10z"/>
<path d="M5397 3593 c9 -3 10 -10 3 -23 -11 -20 4 -39 15 -20 4 6 10 8 15 5 5
-3 12 0 16 6 5 9 0 10 -14 7 -12 -4 -22 -2 -22 3 0 5 9 9 19 9 37 0 29 15 -7
16 -21 0 -31 -1 -25 -3z"/>
<path d="M4845 3580 c-3 -6 1 -7 9 -4 18 7 21 14 7 14 -6 0 -13 -4 -16 -10z"/>
<path d="M5169 3578 c-5 -18 -6 -38 -1 -34 7 8 12 36 6 36 -2 0 -4 -1 -5 -2z"/>
<path d="M5320 3571 c0 -6 4 -13 10 -16 6 -3 7 1 4 9 -7 18 -14 21 -14 7z"/>
<path d="M5073 3550 c6 -24 -4 -32 -23 -20 -14 8 -50 -8 -50 -23 0 -4 4 -6 9
-3 4 3 17 -1 27 -9 29 -22 40 -18 18 6 -15 16 -16 21 -4 19 8 -1 23 -2 34 -1
15 1 16 4 7 15 -7 9 -8 17 -3 20 6 3 12 -1 16 -9 3 -9 12 -12 22 -8 15 5 15 7
0 15 -9 5 -26 11 -37 13 -17 3 -20 0 -16 -15z"/>
<path d="M4673 3553 c4 -3 2 -12 -5 -20 -8 -11 -7 -12 6 -7 18 7 22 34 4 34
-6 0 -8 -3 -5 -7z"/>
<path d="M4834 3545 c-4 -8 -9 -13 -13 -10 -4 2 -8 -2 -8 -9 0 -7 6 -13 14
-13 7 0 11 3 8 5 -3 3 2 14 12 24 10 11 12 18 4 18 -6 0 -14 -7 -17 -15z"/>
<path d="M4879 3543 c-13 -16 -12 -17 4 -4 16 13 21 21 13 21 -2 0 -10 -8 -17
-17z"/>
<path d="M5335 3518 c2 -11 -3 -18 -12 -18 -9 0 -13 6 -10 13 3 8 0 14 -7 14
-23 0 -16 -49 13 -86 15 -20 31 -43 35 -51 3 -8 4 -5 2 8 -2 12 0 22 5 22 5 0
9 -6 9 -12 0 -10 2 -10 9 0 7 12 12 12 30 1 30 -19 26 -26 -11 -22 -25 3 -30
2 -18 -6 8 -6 25 -11 38 -11 22 0 27 12 22 55 -2 16 1 17 13 7 8 -7 23 -10 33
-6 14 4 15 3 6 -4 -13 -9 -3 -18 31 -27 4 -2 10 -4 15 -5 4 -1 10 -2 15 -1 4
0 7 -5 7 -13 0 -8 7 -16 15 -20 13 -5 13 -2 -1 19 -14 22 -32 30 -56 26 -5 0
-8 4 -8 10 0 6 6 9 14 6 8 -3 19 0 25 7 9 10 7 13 -6 13 -42 0 -46 2 -33 18
11 13 10 14 -4 9 -9 -3 -16 -10 -16 -15 0 -5 -4 -9 -9 -9 -5 0 -7 9 -4 20 3
11 0 27 -7 35 -11 13 -8 14 17 9 21 -4 30 -2 30 8 0 14 -45 17 -65 4 -7 -4
-12 -1 -12 8 0 9 -4 16 -10 16 -5 0 -10 -4 -10 -9 0 -5 -11 -8 -24 -5 -14 2
-28 0 -31 -6 -9 -14 -23 -13 -28 3 -2 6 -3 4 -2 -5z m52 -5 c-4 -3 -2 -12 4
-20 6 -7 9 -13 5 -13 -14 0 -22 -3 -41 -16 -26 -19 -31 -18 -31 6 0 11 4 20 8
20 4 0 8 -4 8 -10 0 -5 5 -10 11 -10 6 0 9 7 6 14 -4 10 -1 13 9 9 10 -4 12 0
8 11 -4 10 -1 16 7 16 7 0 9 -3 6 -7z m38 -3 c-8 13 -7 13 8 1 9 -7 17 -21 17
-30 0 -14 2 -14 11 -1 8 12 9 11 7 -5 -2 -12 -11 -19 -21 -19 -9 1 -15 -2 -12
-6 3 -4 -2 -11 -11 -14 -8 -3 -12 -11 -8 -17 4 -8 3 -9 -5 -5 -6 4 -9 12 -6
17 4 5 -3 9 -15 9 -12 0 -19 -4 -16 -8 3 -5 -3 -8 -12 -7 -29 2 -29 18 0 26
15 4 29 4 32 1 3 -3 6 2 6 11 0 10 7 15 20 12 11 -2 20 1 20 6 0 5 -8 9 -17 7
-11 -2 -19 5 -21 17 -4 17 -3 18 14 5 16 -13 17 -13 9 0z"/>
<path d="M5542 3529 c4 -9 1 -22 -5 -28 -8 -8 -8 -11 1 -11 7 0 12 5 12 10 0
15 17 12 36 -7 17 -17 18 -17 11 0 -4 10 -7 21 -7 23 0 3 -4 3 -9 -1 -5 -3
-17 3 -27 12 -15 15 -17 16 -12 2z"/>
<path d="M4906 3515 c-11 -8 -16 -18 -11 -22 4 -5 10 -2 12 5 5 14 33 17 33 2
0 -9 -25 -26 -44 -30 -5 -1 -12 4 -16 10 -6 10 -12 10 -26 1 -11 -7 -12 -10
-4 -8 8 3 26 -5 39 -17 13 -11 21 -16 17 -9 -7 13 27 37 37 26 13 -12 19 28 7
42 -15 18 -20 18 -44 0z"/>
<path d="M4695 3510 c3 -5 8 -10 11 -10 2 0 4 5 4 10 0 6 -5 10 -11 10 -5 0
-7 -4 -4 -10z"/>
<path d="M4973 3505 c0 -8 4 -12 9 -9 5 3 6 10 3 15 -9 13 -12 11 -12 -6z"/>
<path d="M4646 3498 c3 -5 10 -6 15 -3 13 9 11 12 -6 12 -8 0 -12 -4 -9 -9z"/>
<path d="M4727 3491 c2 -8 -6 -24 -17 -36 -14 -15 -18 -25 -11 -30 7 -3 10 -2
9 3 -4 13 42 53 52 47 5 -3 7 3 6 12 -2 9 -9 19 -17 21 -11 3 -11 1 1 -7 13
-9 13 -11 -2 -11 -9 0 -18 3 -21 8 -2 4 -2 1 0 -7z"/>
<path d="M4791 3494 c0 -11 3 -14 6 -6 3 7 2 16 -1 19 -3 4 -6 -2 -5 -13z"/>
<path d="M5615 3483 c2 -10 4 -21 4 -25 1 -5 7 -8 15 -8 9 0 12 -7 9 -22 -3
-17 -2 -19 5 -9 6 8 12 9 16 3 9 -14 -19 -33 -38 -26 -9 3 -16 1 -16 -5 0 -6
11 -11 25 -11 14 0 25 5 25 11 0 5 5 7 10 4 6 -3 10 -1 10 4 0 21 31 10 40
-14 11 -30 20 -33 13 -5 -3 11 -14 27 -25 34 -19 14 -19 14 -1 19 12 4 10 5
-7 4 -33 -2 -80 30 -73 49 3 8 1 14 -5 14 -6 0 -9 -8 -7 -17z"/>
<path d="M5640 3488 c0 -11 8 -18 20 -18 11 0 20 5 20 11 0 5 -5 7 -11 3 -6
-3 -15 0 -20 7 -7 11 -9 10 -9 -3z"/>
<path d="M4597 3473 c-10 -10 -8 -33 2 -33 6 0 9 9 8 20 -1 23 -1 22 -10 13z"/>
<path d="M5566 3471 c-8 -12 4 -41 16 -41 6 0 5 6 -2 15 -6 8 -9 19 -5 25 3 5
4 10 1 10 -3 0 -7 -4 -10 -9z"/>
<path d="M5046 3457 c3 -10 9 -15 12 -12 3 3 0 11 -7 18 -10 9 -11 8 -5 -6z"/>
<path d="M4807 3435 c-8 -8 -17 -12 -21 -10 -3 3 -4 2 -1 -2 3 -4 13 -8 21 -9
9 -1 13 0 10 3 -3 3 2 12 12 19 9 7 12 14 5 14 -6 0 -18 -7 -26 -15z"/>
<path d="M4726 3432 c-3 -5 1 -9 9 -9 8 0 15 4 15 9 0 4 -4 8 -9 8 -6 0 -12
-4 -15 -8z"/>
<path d="M5286 3432 c-3 -5 1 -9 9 -9 8 0 12 4 9 9 -3 4 -7 8 -9 8 -2 0 -6 -4
-9 -8z"/>
<path d="M5600 3435 c0 -2 7 -8 15 -15 12 -10 15 -10 15 2 0 8 -7 15 -15 15
-8 0 -15 -1 -15 -2z"/>
<path d="M4590 3422 c8 -2 23 -9 34 -14 12 -7 16 -7 12 0 -3 6 0 12 6 15 7 2
-5 4 -27 4 -22 0 -33 -2 -25 -5z"/>
<path d="M4765 3411 c6 -11 4 -13 -8 -8 -10 3 -17 3 -17 -2 0 -5 9 -11 19 -14
19 -5 23 15 6 30 -4 5 -5 2 0 -6z"/>
<path d="M5591 3404 c0 -11 3 -14 6 -6 3 7 2 16 -1 19 -3 4 -6 -2 -5 -13z"/>
<path d="M4590 3400 c0 -5 -12 -21 -27 -36 -16 -15 -23 -24 -16 -20 6 4 17 -2
23 -11 10 -17 10 -17 8 1 -4 28 17 30 42 4 14 -15 19 -17 15 -6 -5 13 -2 16
17 11 17 -3 19 -2 9 5 -12 9 -12 11 0 15 8 2 5 3 -6 1 -27 -4 -65 6 -65 18 0
5 5 6 10 3 6 -3 10 1 10 9 0 9 -4 16 -10 16 -5 0 -10 -4 -10 -10z"/>
<path d="M4646 3394 c-5 -14 -4 -15 8 -5 11 9 15 9 19 -1 4 -10 7 -10 18 1 8
8 9 11 2 7 -6 -3 -14 -2 -18 4 -9 15 -22 12 -29 -6z"/>
<path d="M5462 3401 c-20 -12 -2 -41 26 -41 28 0 25 9 -5 15 -29 6 -29 6 -9
14 11 4 15 10 10 14 -6 3 -16 2 -22 -2z"/>
<path d="M4514 3378 l-19 -23 23 19 c12 11 22 21 22 23 0 8 -8 2 -26 -19z"/>
<path d="M4702 3373 c-6 -2 -9 -9 -6 -15 4 -6 0 -15 -7 -20 -12 -8 -12 -9 0
-6 8 2 18 14 22 26 5 12 7 22 6 21 -1 0 -8 -3 -15 -6z"/>
<path d="M5531 3356 c-8 -10 -9 -16 -1 -21 5 -3 13 1 16 10 9 22 -1 29 -15 11z"/>
<path d="M4490 3339 c0 -5 5 -7 10 -4 6 3 10 8 10 11 0 2 -4 4 -10 4 -5 0 -10
-5 -10 -11z"/>
<path d="M5585 3330 c-3 -6 1 -7 9 -4 18 7 21 14 7 14 -6 0 -13 -4 -16 -10z"/>
<path d="M4590 3300 c-12 -7 -12 -10 3 -16 21 -8 29 -3 19 13 -5 8 -13 9 -22
3z"/>
<path d="M5626 3298 c3 -4 11 -5 19 -1 21 7 19 12 -4 10 -11 0 -18 -5 -15 -9z"/>
<path d="M5048 3070 c-116 -20 -213 -89 -269 -192 -32 -60 -34 -68 -34 -168 0
-93 3 -111 27 -162 52 -111 159 -192 275 -208 164 -22 323 63 392 210 22 47
26 69 26 155 0 87 -3 107 -26 155 -32 68 -101 141 -166 173 -40 21 -151 50
-172 46 -3 -1 -27 -5 -53 -9z m214 -48 c126 -62 191 -170 191 -317 0 -147 -71
-262 -198 -322 -53 -25 -72 -28 -155 -28 -85 0 -101 3 -153 29 -71 36 -130 99
-165 174 -22 47 -27 71 -27 137 0 95 14 147 58 211 41 61 89 99 163 130 49 20
72 24 139 22 67 -3 91 -8 147 -36z"/>
</g>
</svg>
